<svg width="24" height="24" viewBox="0 0 24 24" fill="none" xmlns="http://www.w3.org/2000/svg">
<path d="M12.0845 14.5864C12.4627 14.6248 12.7583 14.9442 12.7583 15.3325C12.7583 15.7209 12.4627 16.0402 12.0845 16.0786L12.0083 16.0825H11.9995C11.5853 16.0825 11.2495 15.7467 11.2495 15.3325C11.2495 14.9183 11.5853 14.5825 11.9995 14.5825H12.0083L12.0845 14.5864Z" fill="currentColor"/>
<path d="M11.9995 7.9165C12.4137 7.9165 12.7495 8.25229 12.7495 8.6665V11.9995C12.7495 12.4137 12.4137 12.7495 11.9995 12.7495C11.5853 12.7495 11.2495 12.4137 11.2495 11.9995V8.6665C11.2495 8.25229 11.5853 7.9165 11.9995 7.9165Z" fill="currentColor"/>
<path fill-rule="evenodd" clip-rule="evenodd" d="M11.9995 2.9165C17.016 2.9165 21.0833 6.98307 21.0835 11.9995C21.0835 17.0161 17.0161 21.0835 11.9995 21.0835C6.98307 21.0833 2.9165 17.016 2.9165 11.9995C2.91668 6.98318 6.98318 2.91668 11.9995 2.9165ZM11.9995 4.4165C7.81161 4.41668 4.41668 7.81161 4.4165 11.9995C4.4165 16.1876 7.8115 19.5833 11.9995 19.5835C16.1877 19.5835 19.5835 16.1877 19.5835 11.9995C19.5833 7.8115 16.1876 4.4165 11.9995 4.4165Z" fill="currentColor"/>
</svg>
