<svg width="24" height="24" viewBox="0 0 24 24" fill="none" xmlns="http://www.w3.org/2000/svg">
<path fill-rule="evenodd" clip-rule="evenodd" d="M8.11845 3.78797C9.97181 2.91222 12.0675 2.68838 14.0638 3.15418C16.0601 3.62013 17.8403 4.74857 19.1145 6.35437C20.3888 7.96018 21.0831 9.94994 21.0833 11.9999V12.8329C21.0833 13.6946 20.7403 14.5213 20.1311 15.1307C19.5218 15.7401 18.695 16.0827 17.8333 16.0829C16.9714 16.0829 16.1439 15.7402 15.5345 15.1307C15.3799 14.9761 15.2423 14.8075 15.1233 14.6278C14.3742 15.5176 13.2532 16.0838 11.9993 16.0839C9.74429 16.0837 7.9163 14.2549 7.9163 11.9999C7.91657 9.74506 9.74446 7.91705 11.9993 7.91687C12.9797 7.91696 13.8793 8.26281 14.5833 8.83875V8.6659C14.5836 8.25197 14.9193 7.9159 15.3333 7.9159C15.747 7.91627 16.083 8.2522 16.0833 8.6659V12.8329C16.0833 13.297 16.2678 13.742 16.596 14.0702C16.9242 14.3983 17.3693 14.5829 17.8333 14.5829C18.2972 14.5827 18.7426 14.3982 19.0706 14.0702C19.3985 13.7421 19.5833 13.2968 19.5833 12.8329V11.9999C19.5831 10.2884 19.0036 8.62665 17.9397 7.28601C16.8759 5.94555 15.3895 5.00411 13.7229 4.61512C12.0564 4.22622 10.3064 4.41232 8.75907 5.14344C7.21182 5.87468 5.95717 7.10894 5.1995 8.64344C4.44203 10.1779 4.22601 11.9237 4.58622 13.5966C4.94658 15.2697 5.86258 16.7725 7.18485 17.8593C8.50705 18.9457 10.1583 19.5535 11.8694 19.5829C13.5805 19.6122 15.2519 19.0619 16.6106 18.0214L16.6731 17.9774C16.9966 17.7781 17.4253 17.852 17.6614 18.16C17.913 18.4887 17.8511 18.9599 17.5227 19.2118L17.2132 19.4384C15.6447 20.5378 13.7647 21.1149 11.8431 21.0819C9.79355 21.0466 7.81637 20.3189 6.23271 19.0175C4.64898 17.7159 3.5521 15.917 3.1204 13.913C2.68881 11.909 2.94733 9.81754 3.85478 7.97937C4.7623 6.14133 6.26513 4.66387 8.11845 3.78797ZM11.9993 9.41687C10.5729 9.41705 9.41657 10.5735 9.4163 11.9999C9.4163 13.4265 10.5727 14.5837 11.9993 14.5839C13.4259 14.5837 14.5833 13.4265 14.5833 11.9999C14.583 10.5735 13.4257 9.41708 11.9993 9.41687Z" fill="currentColor"/>
</svg>
