<svg width="24" height="24" viewBox="0 0 24 24" fill="none" xmlns="http://www.w3.org/2000/svg">
<path fill-rule="evenodd" clip-rule="evenodd" d="M15.333 2.91699C15.7472 2.91699 16.083 3.25278 16.083 3.66699V4.58301H17.833C19.1677 4.58301 20.25 5.66531 20.25 7V18.666C20.25 20.0007 19.1677 21.083 17.833 21.083H6.16699C4.8323 21.083 3.75 20.0007 3.75 18.666V7C3.75 5.66531 4.8323 4.58301 6.16699 4.58301H7.91699V3.66699C7.91699 3.25278 8.25278 2.91699 8.66699 2.91699C9.08121 2.91699 9.41699 3.25278 9.41699 3.66699V4.58301H14.583V3.66699C14.583 3.25278 14.9188 2.91699 15.333 2.91699ZM5.25 11.083V18.666C5.25 19.1723 5.66073 19.583 6.16699 19.583H17.833C18.3393 19.583 18.75 19.1723 18.75 18.666V11.083H5.25ZM6.16699 6.08301C5.66073 6.08301 5.25 6.49374 5.25 7V9.58301H18.75V7C18.75 6.49374 18.3393 6.08301 17.833 6.08301H16.083V7C16.083 7.41421 15.7472 7.75 15.333 7.75C14.9188 7.75 14.583 7.41421 14.583 7V6.08301H9.41699V7C9.41699 7.41421 9.08121 7.75 8.66699 7.75C8.25278 7.75 7.91699 7.41421 7.91699 7V6.08301H6.16699Z" fill="currentColor"/>
</svg>
