<svg width="24" height="24" viewBox="0 0 24 24" fill="none" xmlns="http://www.w3.org/2000/svg">
<path d="M9.99765 3.14033C11.9082 2.70867 13.9077 2.90568 15.6969 3.70283C16.0751 3.87137 16.2451 4.31478 16.0768 4.69307C15.9081 5.07127 15.4648 5.24147 15.0865 5.07295C13.5928 4.40742 11.9238 4.24284 10.3287 4.60322C8.73371 4.96364 7.29739 5.8299 6.23496 7.07295C5.17273 8.31589 4.54086 9.86923 4.4332 11.5007C4.32564 13.1324 4.74826 14.7558 5.63828 16.1276C6.52824 17.4993 7.83798 18.5463 9.37167 19.113C10.9055 19.6797 12.5819 19.7357 14.15 19.2722C15.7181 18.8085 17.0947 17.8504 18.0738 16.5407C18.9918 15.3128 19.5142 13.8373 19.5768 12.3103L19.5836 12.0046V11.238C19.5837 10.8239 19.9195 10.4881 20.3336 10.488C20.7476 10.4882 21.0835 10.8239 21.0836 11.238V12.0056C21.0824 13.9641 20.4477 15.8705 19.275 17.4392C18.1023 19.0076 16.4538 20.1553 14.5758 20.7106C12.6975 21.266 10.6894 21.199 8.85214 20.5202C7.01484 19.8414 5.44557 18.5872 4.37949 16.944C3.31345 15.3009 2.80729 13.3565 2.93613 11.4021C3.06506 9.44774 3.82283 7.58722 5.09531 6.09834C6.36777 4.60963 8.08742 3.57209 9.99765 3.14033Z" fill="currentColor"/>
<path d="M19.8023 4.80732C20.0951 4.51439 20.5699 4.51461 20.8629 4.80732C21.1558 5.10006 21.1565 5.57486 20.8639 5.86787L12.5299 14.2097C12.3893 14.3501 12.1983 14.4293 11.9996 14.4294C11.8008 14.4294 11.6099 14.3502 11.4693 14.2097L8.96933 11.7097L8.91757 11.653C8.67726 11.3585 8.69492 10.9238 8.96933 10.6491C9.24395 10.3745 9.67865 10.357 9.97324 10.5974L10.0299 10.6491L11.9986 12.6179L19.8023 4.80732Z" fill="currentColor"/>
</svg>
