<svg width="24" height="24" viewBox="0 0 24 24" fill="none" xmlns="http://www.w3.org/2000/svg">
<path fill-rule="evenodd" clip-rule="evenodd" d="M18.667 8.75C20.0015 8.75018 21.083 9.83241 21.083 11.167V18.667C21.0828 20.0014 20.0014 21.0828 18.667 21.083H11.167C9.83241 21.083 8.75018 20.0015 8.75 18.667V11.167C8.75 9.8323 9.8323 8.75 11.167 8.75H18.667ZM11.167 10.25C10.6607 10.25 10.25 10.6607 10.25 11.167V18.667C10.2502 19.1731 10.6608 19.583 11.167 19.583H18.667C19.173 19.5828 19.5828 19.173 19.583 18.667V11.167C19.583 10.6608 19.1731 10.2502 18.667 10.25H11.167Z" fill="currentColor"/>
<path d="M12.834 2.91699C13.4748 2.91708 14.0898 3.17186 14.543 3.625C14.996 4.07818 15.25 4.6932 15.25 5.33398V6.16699C15.25 6.58121 14.9142 6.91699 14.5 6.91699C14.0859 6.91682 13.75 6.5811 13.75 6.16699V5.33398C13.75 5.09087 13.6534 4.85746 13.4814 4.68555C13.3096 4.51382 13.0769 4.41708 12.834 4.41699H5.33398C5.09087 4.41699 4.85746 4.51364 4.68555 4.68555C4.51364 4.85746 4.41699 5.09087 4.41699 5.33398V12.834C4.41708 13.0769 4.51382 13.3096 4.68555 13.4814C4.85746 13.6534 5.09087 13.75 5.33398 13.75H6.16699L6.24414 13.7539C6.62202 13.7925 6.91683 14.112 6.91699 14.5C6.91699 14.8882 6.62209 15.2075 6.24414 15.2461L6.16699 15.25H5.33398C4.6932 15.25 4.07818 14.996 3.625 14.543C3.17186 14.0898 2.91708 13.4748 2.91699 12.834V5.33398C2.91699 4.69304 3.17179 4.07821 3.625 3.625C4.07821 3.17179 4.69304 2.91699 5.33398 2.91699H12.834Z" fill="currentColor"/>
</svg>
