<svg width="24" height="24" viewBox="0 0 24 24" fill="none" xmlns="http://www.w3.org/2000/svg">
<path d="M5.33472 4.5835C5.74893 4.5835 6.08472 4.91928 6.08472 5.3335V11.1665C6.08472 11.8516 6.35708 12.5092 6.84155 12.9937C7.32593 13.4779 7.98278 13.7504 8.66772 13.7505H16.8582L13.9714 10.8638C13.6785 10.5709 13.6785 10.0961 13.9714 9.80322C14.2643 9.51033 14.7391 9.51033 15.032 9.80322L19.199 13.9702C19.2386 14.0099 19.2716 14.0537 19.3005 14.0991C19.3105 14.1147 19.3181 14.1316 19.3269 14.1479C19.4449 14.3683 19.4446 14.6317 19.3269 14.8521C19.3181 14.8684 19.3104 14.8852 19.3005 14.9009C19.2715 14.9466 19.2388 14.9909 19.199 15.0308L15.032 19.1968C14.7391 19.4897 14.2643 19.4897 13.9714 19.1968C13.6787 18.9039 13.6786 18.4291 13.9714 18.1362L16.8562 15.2505H8.66772C7.58495 15.2504 6.54669 14.8198 5.78101 14.0542C5.01523 13.2884 4.58472 12.2495 4.58472 11.1665V5.3335C4.58472 4.91928 4.9205 4.5835 5.33472 4.5835Z" fill="currentColor"/>
</svg>
