<svg width="24" height="24" viewBox="0 0 24 24" fill="none" xmlns="http://www.w3.org/2000/svg">
<path fill-rule="evenodd" clip-rule="evenodd" d="M12 3.25C16.8325 3.25 20.75 7.16751 20.75 12C20.75 16.8325 16.8325 20.75 12 20.75C7.16751 20.75 3.25 16.8325 3.25 12C3.25 7.16751 7.16751 3.25 12 3.25ZM4.78809 12.75C5.10309 15.8151 7.32829 18.3123 10.2529 19.0361C8.96956 17.1853 8.2128 15.0125 8.0752 12.75H4.78809ZM15.9248 12.75C15.7872 15.0127 15.0297 17.1852 13.7461 19.0361C16.6712 18.3126 18.8969 15.8154 19.2119 12.75H15.9248ZM9.5791 12.75C9.73426 14.9898 10.5803 17.1246 12 18.8623C13.4197 17.1246 14.2657 14.9898 14.4209 12.75H9.5791ZM10.2529 4.96289C7.32817 5.68661 5.1031 8.18482 4.78809 11.25H8.0752C8.21281 8.98722 8.96928 6.81382 10.2529 4.96289ZM12 5.13672C10.58 6.87455 9.73428 9.00998 9.5791 11.25H14.4209C14.2657 9.00998 13.42 6.87455 12 5.13672ZM13.7461 4.96289C15.0299 6.81392 15.7872 8.98703 15.9248 11.25H19.2119C18.8969 8.18449 16.6713 5.68631 13.7461 4.96289Z" fill="currentColor"/>
</svg>
