<svg width="24" height="24" viewBox="0 0 24 24" fill="none" xmlns="http://www.w3.org/2000/svg">
<path d="M19.5771 18.3882C19.9551 18.4268 20.25 18.7461 20.25 19.1343C20.25 19.5224 19.9551 19.8417 19.5771 19.8804L19.5 19.8843H12C11.5858 19.8843 11.25 19.5485 11.25 19.1343C11.25 18.7201 11.5858 18.3843 12 18.3843H19.5L19.5771 18.3882Z" fill="currentColor"/>
<path fill-rule="evenodd" clip-rule="evenodd" d="M17 4.11572C17.3306 4.11573 17.6584 4.18061 17.9639 4.30713C18.2692 4.43364 18.5466 4.61935 18.7803 4.85303C19.014 5.08682 19.1996 5.36496 19.3262 5.67041C19.4526 5.9757 19.5175 6.30288 19.5176 6.6333C19.5176 6.96393 19.4527 7.29171 19.3262 7.59717C19.1997 7.90253 19.014 8.17984 18.7803 8.41357L8.36327 18.8306C8.26729 18.9265 8.14721 18.9949 8.01561 19.0278L4.68163 19.8608C4.42612 19.9246 4.15595 19.8498 3.96971 19.6636C3.78351 19.4773 3.70859 19.2072 3.77245 18.9517L4.60545 15.6187L4.6367 15.522C4.67426 15.4279 4.73067 15.3421 4.80272 15.27L15.2197 4.85303C15.6919 4.38094 16.3323 4.11572 17 4.11572ZM17 5.61572C16.7301 5.61572 16.4711 5.72279 16.2803 5.91357L6.00975 16.1831L5.53026 18.1021L7.4492 17.6226L17.7197 7.35303C17.8142 7.25855 17.8893 7.14637 17.9404 7.02295C17.9915 6.89949 18.0176 6.76692 18.0176 6.6333C18.0175 6.49972 17.9915 6.36707 17.9404 6.24365C17.8893 6.12029 17.8141 6.00801 17.7197 5.91357C17.6252 5.81913 17.513 5.744 17.3896 5.69287C17.2662 5.64173 17.1336 5.61573 17 5.61572Z" fill="currentColor"/>
</svg>
