<svg width="24" height="24" viewBox="0 0 24 24" fill="none" xmlns="http://www.w3.org/2000/svg">
<path d="M11.1934 4.6377C11.5713 4.67632 11.8662 4.99562 11.8662 5.38379C11.8662 5.77196 11.5713 6.09126 11.1934 6.12988L11.1162 6.13379H5.2832C5.04009 6.13379 4.80667 6.23044 4.63477 6.40234C4.46286 6.57425 4.36621 6.80767 4.36621 7.05078V18.7168C4.36621 18.9599 4.46286 19.1933 4.63477 19.3652C4.80667 19.5371 5.04009 19.6338 5.2832 19.6338H16.9492C17.1923 19.6338 17.4257 19.5371 17.5977 19.3652C17.7696 19.1933 17.8662 18.9599 17.8662 18.7168V12.8838C17.8662 12.4696 18.202 12.1338 18.6162 12.1338C19.0304 12.1338 19.3662 12.4696 19.3662 12.8838V18.7168C19.3662 19.3577 19.1114 19.9726 18.6582 20.4258C18.205 20.879 17.5902 21.1338 16.9492 21.1338H5.2832C4.64226 21.1338 4.02743 20.879 3.57422 20.4258C3.12101 19.9726 2.86621 19.3577 2.86621 18.7168V7.05078C2.86621 6.40984 3.12101 5.79501 3.57422 5.3418C4.02743 4.88858 4.64226 4.63379 5.2832 4.63379H11.1162L11.1934 4.6377Z" fill="currentColor"/>
<path fill-rule="evenodd" clip-rule="evenodd" d="M18.6162 2.86621C19.2839 2.86621 19.9243 3.1314 20.3965 3.60352C20.8686 4.07564 21.1337 4.7161 21.1338 5.38379C21.1338 6.0515 20.8686 6.6919 20.3965 7.16406L12.4795 15.0811C12.3835 15.177 12.2635 15.2453 12.1318 15.2783L8.79785 16.1113C8.54233 16.1751 8.27218 16.1003 8.08594 15.9141C7.89973 15.7278 7.82481 15.4577 7.88867 15.2021L8.72168 11.8691L8.75293 11.7725C8.79048 11.6784 8.84689 11.5926 8.91895 11.5205L16.8359 3.60352C17.3081 3.1314 17.9485 2.86621 18.6162 2.86621ZM18.6162 4.36621C18.3463 4.36621 18.0873 4.47325 17.8965 4.66406L10.126 12.4336L9.64648 14.3525L11.5654 13.873L19.3359 6.10352C19.5267 5.91266 19.6338 5.65367 19.6338 5.38379C19.6337 5.11393 19.5268 4.85489 19.3359 4.66406C19.1451 4.47325 18.8861 4.36621 18.6162 4.36621Z" fill="currentColor"/>
</svg>
