<svg width="24" height="24" viewBox="0 0 24 24" fill="none" xmlns="http://www.w3.org/2000/svg">
<path fill-rule="evenodd" clip-rule="evenodd" d="M2.30298 2.30329C2.59587 2.01039 3.07063 2.01039 3.36353 2.30329L21.6965 20.6363C21.9894 20.9292 21.9894 21.404 21.6965 21.6968C21.4036 21.9897 20.9289 21.9897 20.636 21.6968L16.8645 17.9254C15.4235 18.8676 13.7424 19.3883 12.012 19.4166H12.0002C8.78397 19.4166 6.3074 17.5801 4.68189 15.8463C3.86247 14.9722 3.23681 14.1008 2.81568 13.4488C2.60477 13.1222 2.44335 12.8488 2.33423 12.6549C2.27977 12.558 2.2379 12.4805 2.20923 12.4263C2.1949 12.3993 2.18383 12.3771 2.17603 12.3619C2.17221 12.3545 2.16849 12.3487 2.16626 12.3443C2.16517 12.3421 2.165 12.3398 2.16431 12.3384L2.16333 12.3365L2.16236 12.3355C2.05353 12.1177 2.05718 11.8606 2.17212 11.6461C3.12432 9.87156 4.39916 8.29205 5.92896 6.98981L2.30298 3.36383C2.0101 3.07095 2.01012 2.59618 2.30298 2.30329ZM6.99439 8.05524C5.66888 9.16469 4.54937 10.5005 3.6897 12.0015C3.78371 12.1654 3.91215 12.3825 4.07544 12.6353C4.46157 13.2332 5.03384 14.0286 5.77661 14.8209C7.27446 16.4185 9.37853 17.9124 11.9915 17.9156C13.331 17.893 14.6356 17.5193 15.7776 16.8384L13.718 14.7789C13.5723 14.8743 13.4198 14.9596 13.26 15.0308C12.8615 15.2084 12.4315 15.3043 11.9954 15.3121C11.559 15.3198 11.1246 15.2392 10.72 15.0757C10.3156 14.9124 9.94832 14.6692 9.63989 14.3609C9.3313 14.0523 9.08753 13.6845 8.92407 13.2799C8.76064 12.8752 8.68008 12.4417 8.68775 12.0054C8.69545 11.5691 8.79138 11.1385 8.969 10.7398C9.04026 10.5799 9.12443 10.4265 9.21997 10.2808L6.99439 8.05524ZM10.3245 11.3853C10.2385 11.5901 10.1917 11.8096 10.1877 12.0318C10.1836 12.2667 10.2267 12.5005 10.3147 12.7183C10.4027 12.9361 10.5343 13.1342 10.7004 13.3004C10.8665 13.4664 11.0647 13.5972 11.2825 13.6851C11.5002 13.773 11.7333 13.8162 11.968 13.8121C12.1901 13.8082 12.4089 13.7602 12.6135 13.6744L10.3245 11.3853Z" fill="currentColor"/>
<path d="M12.0002 4.58454C15.2163 4.58466 17.6922 6.42011 19.3176 8.15387C20.1371 9.02803 20.7637 9.89924 21.1848 10.5513C21.3958 10.8781 21.5562 11.1523 21.6653 11.3463C21.7199 11.4433 21.7616 11.5206 21.7903 11.5748C21.8046 11.6018 21.8157 11.6231 21.8235 11.6382C21.8273 11.6456 21.831 11.6514 21.8333 11.6558L21.8372 11.6636L21.8733 11.7486C21.9437 11.9463 21.9286 12.1665 21.8284 12.3541C21.298 13.3463 20.665 14.2803 19.9407 15.1412L19.8879 15.1978C19.615 15.4623 19.1811 15.4819 18.884 15.232C18.5671 14.9653 18.5256 14.4923 18.7922 14.1754C19.3631 13.497 19.8708 12.7683 20.3098 11.9986C20.2159 11.8348 20.0881 11.6182 19.9251 11.3658C19.539 10.768 18.9666 9.97255 18.2239 9.18024C16.7245 7.58086 14.6171 6.08369 12.0002 6.08356H11.9983C11.4674 6.08231 10.9381 6.14324 10.4211 6.26423C10.0179 6.3586 9.61427 6.10784 9.51978 5.70466C9.42538 5.30135 9.67605 4.8977 10.0793 4.80329C10.709 4.65594 11.3536 4.58313 12.0002 4.58454Z" fill="currentColor"/>
</svg>
