<svg width="24" height="24" viewBox="0 0 24 24" fill="none" xmlns="http://www.w3.org/2000/svg">
<path fill-rule="evenodd" clip-rule="evenodd" d="M11.9994 8.75049C13.7943 8.75049 15.2494 10.2056 15.2494 12.0005C15.2494 13.7954 13.7943 15.2505 11.9994 15.2505C10.2045 15.2505 8.74937 13.7954 8.74937 12.0005C8.74937 10.2056 10.2045 8.75051 11.9994 8.75049ZM11.9994 10.2505C11.0329 10.2505 10.2494 11.034 10.2494 12.0005C10.2494 12.967 11.0329 13.7505 11.9994 13.7505C12.9659 13.7505 13.7494 12.967 13.7494 12.0005C13.7494 11.034 12.9659 10.2505 11.9994 10.2505Z" fill="currentColor"/>
<path fill-rule="evenodd" clip-rule="evenodd" d="M12.0004 4.5835C15.2162 4.58379 17.6923 6.42012 19.3177 8.15381C20.1372 9.0279 20.7638 9.89922 21.1849 10.5513C21.3959 10.878 21.5563 11.1522 21.6654 11.3462C21.7199 11.4431 21.7617 11.5206 21.7904 11.5747C21.8046 11.6017 21.8158 11.6231 21.8236 11.6382C21.8274 11.6455 21.8311 11.6514 21.8334 11.6558L21.8373 11.6636L21.8724 11.7456C21.9416 11.9374 21.9295 12.1508 21.8373 12.3354L21.8334 12.3442C21.8311 12.3486 21.8274 12.3544 21.8236 12.3618C21.8158 12.377 21.8047 12.3993 21.7904 12.4263C21.7617 12.4804 21.7198 12.5581 21.6654 12.6548C21.5563 12.8487 21.3957 13.1224 21.1849 13.4487C20.7638 14.1008 20.1372 14.972 19.3177 15.8462C17.6923 17.5799 15.2163 19.4162 12.0004 19.4165C8.78419 19.4165 6.30751 17.58 4.68199 15.8462C3.86265 14.9722 3.23691 14.1008 2.81578 13.4487C2.60494 13.1223 2.44345 12.8487 2.33434 12.6548C2.27993 12.5581 2.238 12.4804 2.20934 12.4263C2.19505 12.3993 2.18393 12.377 2.17613 12.3618C2.17235 12.3545 2.16861 12.3486 2.16637 12.3442C2.1653 12.3421 2.16505 12.3398 2.16441 12.3384L2.16344 12.3364L2.16246 12.3354C2.05695 12.1243 2.05691 11.8757 2.16246 11.6646L2.16344 11.6636L2.16441 11.6616C2.16505 11.6602 2.16533 11.6578 2.16637 11.6558C2.16862 11.6514 2.17234 11.6456 2.17613 11.6382C2.18391 11.623 2.19509 11.6016 2.20934 11.5747C2.23799 11.5206 2.27984 11.4431 2.33434 11.3462C2.44345 11.1522 2.6048 10.8779 2.81578 10.5513C3.23694 9.89922 3.86267 9.02775 4.68199 8.15381C6.30751 6.42 8.7842 4.5835 12.0004 4.5835ZM12.0004 6.0835C9.38344 6.0835 7.27619 7.58081 5.77672 9.18018C5.03391 9.97251 4.46167 10.7679 4.07555 11.3657C3.91205 11.6189 3.78286 11.8356 3.68883 11.9995C3.78292 12.1636 3.91168 12.3815 4.07555 12.6353C4.46167 13.2331 5.03402 14.0286 5.77672 14.8208C7.27617 16.42 9.38361 17.9165 12.0004 17.9165C14.617 17.9162 16.7246 16.4201 18.224 14.8208C18.9668 14.0284 19.5391 13.2331 19.9252 12.6353C20.089 12.3816 20.2168 12.1636 20.3109 11.9995C20.2169 11.8357 20.0885 11.6187 19.9252 11.3657C19.5391 10.768 18.9666 9.97242 18.224 9.18018C16.7246 7.58088 14.617 6.08379 12.0004 6.0835Z" fill="currentColor"/>
</svg>
