<svg width="24" height="24" viewBox="0 0 24 24" fill="none" xmlns="http://www.w3.org/2000/svg">
<path fill-rule="evenodd" clip-rule="evenodd" d="M16.1245 3.65344C16.8251 3.65344 17.5193 3.79151 18.1665 4.05969C18.8136 4.32782 19.4018 4.72057 19.897 5.21594L20.0776 5.40637C20.4884 5.85946 20.8186 6.38025 21.0532 6.94641C21.3214 7.59364 21.4595 8.28781 21.4595 8.9884C21.4595 9.68887 21.3213 10.3823 21.0532 11.0294C20.785 11.6767 20.3925 12.2656 19.897 12.7609L12.5298 20.1271C12.2369 20.4197 11.762 20.4199 11.4692 20.1271L4.10303 12.7599C3.10276 11.7595 2.54056 10.4031 2.54053 8.9884C2.54053 7.57363 3.10263 6.21634 4.10303 5.21594C5.1033 4.21579 6.46 3.65355 7.87451 3.65344C9.28921 3.65344 10.6466 4.21565 11.647 5.21594L11.9995 5.56848L12.353 5.21594C12.8482 4.7206 13.4364 4.32781 14.0835 4.05969C14.7306 3.79159 15.4241 3.6535 16.1245 3.65344ZM16.1245 5.15344C15.6211 5.1535 15.1227 5.25277 14.6577 5.44543C14.1926 5.63817 13.7695 5.92039 13.4136 6.27649L12.5298 7.16028C12.2369 7.45294 11.7621 7.45309 11.4692 7.16028L10.5864 6.27649C9.86735 5.5575 8.89139 5.15344 7.87451 5.15344C6.85782 5.15355 5.88254 5.55764 5.16357 6.27649C4.44448 6.99558 4.04053 7.97145 4.04053 8.9884C4.04056 10.0052 4.44461 10.9803 5.16357 11.6993L11.9995 18.5353L18.8364 11.6993L18.9663 11.5626C19.2616 11.2369 19.4988 10.8622 19.6675 10.4552C19.8601 9.99011 19.9595 9.49182 19.9595 8.9884C19.9595 8.48485 19.8602 7.98583 19.6675 7.52063C19.4748 7.05567 19.1924 6.63331 18.8364 6.27747C18.4805 5.92133 18.0575 5.63818 17.5923 5.44543C17.1271 5.25268 16.6281 5.15344 16.1245 5.15344Z" fill="currentColor"/>
</svg>
