<svg width="24" height="24" viewBox="0 0 24 24" fill="none" xmlns="http://www.w3.org/2000/svg">
<path d="M12.0845 15.4204C12.4627 15.4588 12.7583 15.7782 12.7583 16.1665C12.7583 16.5548 12.4627 16.8742 12.0845 16.9126L12.0083 16.9165H11.9995C11.5853 16.9165 11.2495 16.5807 11.2495 16.1665C11.2495 15.7523 11.5853 15.4165 11.9995 15.4165H12.0083L12.0845 15.4204Z" fill="currentColor"/>
<path d="M10.2866 7.52783C10.9483 7.13901 11.7265 6.99672 12.4829 7.12646C13.2392 7.2563 13.9252 7.64976 14.4194 8.23682C14.9134 8.82372 15.184 9.56638 15.1831 10.3335L15.1724 10.5591C15.0697 11.6658 14.2276 12.4135 13.5991 12.8325C13.2412 13.0712 12.8886 13.2472 12.6284 13.3628C12.4973 13.4211 12.3864 13.4654 12.3071 13.4956C12.2677 13.5106 12.2356 13.5216 12.2124 13.5298C12.2008 13.5339 12.1912 13.5381 12.1841 13.5405L12.1724 13.5444H12.1704L12.0962 13.5649C11.7253 13.6481 11.3441 13.4391 11.2212 13.0708C11.0903 12.6781 11.3024 12.2529 11.6948 12.1216C11.6972 12.1208 11.7029 12.119 11.7095 12.1167C11.7228 12.1119 11.7453 12.1042 11.7739 12.0933C11.8313 12.0714 11.9161 12.0375 12.019 11.9917C12.2276 11.899 12.5001 11.7625 12.7671 11.5845C13.3467 11.1981 13.683 10.7686 13.6831 10.3335C13.6837 9.92026 13.5381 9.51879 13.272 9.20264C13.0059 8.8865 12.6363 8.67487 12.229 8.60498C11.8217 8.53512 11.4027 8.61142 11.0464 8.8208C10.6901 9.03018 10.4189 9.35874 10.2817 9.74854L9.57471 9.49951L8.86768 9.25146C9.12237 8.52744 9.62492 7.91672 10.2866 7.52783Z" fill="currentColor"/>
<path d="M10.2817 9.74854C10.1443 10.1393 9.71643 10.345 9.32568 10.2075C8.93507 10.07 8.73036 9.64212 8.86768 9.25146L10.2817 9.74854Z" fill="currentColor"/>
<path fill-rule="evenodd" clip-rule="evenodd" d="M11.9995 2.9165C17.016 2.9165 21.0833 6.98307 21.0835 11.9995C21.0835 17.0161 17.0161 21.0835 11.9995 21.0835C6.98307 21.0833 2.9165 17.016 2.9165 11.9995C2.91668 6.98318 6.98318 2.91668 11.9995 2.9165ZM11.9995 4.4165C7.81161 4.41668 4.41668 7.81161 4.4165 11.9995C4.4165 16.1876 7.8115 19.5833 11.9995 19.5835C16.1877 19.5835 19.5835 16.1877 19.5835 11.9995C19.5833 7.8115 16.1876 4.4165 11.9995 4.4165Z" fill="currentColor"/>
</svg>
