<svg width="24" height="24" viewBox="0 0 24 24" fill="none" xmlns="http://www.w3.org/2000/svg">
<path fill-rule="evenodd" clip-rule="evenodd" d="M9.08301 7.08301C10.1876 7.08301 11.083 7.97844 11.083 9.08301C11.083 10.1876 10.1876 11.083 9.08301 11.083C7.97844 11.083 7.08301 10.1876 7.08301 9.08301C7.08301 7.97844 7.97844 7.08301 9.08301 7.08301ZM9.08301 8.58301C8.80687 8.58301 8.58301 8.80687 8.58301 9.08301C8.58301 9.35915 8.80687 9.58301 9.08301 9.58301C9.35915 9.58301 9.58301 9.35915 9.58301 9.08301C9.58301 8.80687 9.35915 8.58301 9.08301 8.58301Z" fill="currentColor"/>
<path fill-rule="evenodd" clip-rule="evenodd" d="M17.833 3.75C19.1677 3.75 20.25 4.8323 20.25 6.16699V17.833C20.25 19.1677 19.1677 20.25 17.833 20.25H6.16699C4.8323 20.25 3.75 19.1677 3.75 17.833V6.16699C3.75 4.8323 4.8323 3.75 6.16699 3.75H17.833ZM7.97754 18.75H17.833C18.3393 18.75 18.75 18.3393 18.75 17.833V14.8105L15.333 11.3936L7.97754 18.75ZM6.16699 5.25C5.66073 5.25 5.25 5.66073 5.25 6.16699V17.833C5.25 18.2451 5.52223 18.5935 5.89648 18.709L14.8037 9.80273L14.918 9.70898C15.0402 9.62755 15.1849 9.58301 15.334 9.58301C15.5328 9.58309 15.7237 9.66216 15.8643 9.80273L18.75 12.6885V6.16699C18.75 5.66073 18.3393 5.25 17.833 5.25H6.16699Z" fill="currentColor"/>
</svg>
