<svg width="24" height="24" viewBox="0 0 24 24" fill="none" xmlns="http://www.w3.org/2000/svg">
<path fill-rule="evenodd" clip-rule="evenodd" d="M12 3.19727C12.4142 3.19727 12.7499 3.5331 12.75 3.94727C12.75 4.36148 12.4142 4.69727 12 4.69727H4.89453C4.59103 4.69732 4.29959 4.81763 4.08496 5.03223C3.87035 5.24683 3.75008 5.5383 3.75 5.8418V19.1055C3.75005 19.409 3.87033 19.7004 4.08496 19.915C4.29959 20.1297 4.591 20.2499 4.89453 20.25H5.53125L13.9199 11.8623C14.4158 11.3668 15.0881 11.088 15.7891 11.0879C16.4902 11.0879 17.1632 11.3657 17.6592 11.8613L19.3027 13.5049V12C19.3027 11.5858 19.6385 11.25 20.0527 11.25C20.4669 11.2501 20.8027 11.5858 20.8027 12V19.1055C20.8027 19.8068 20.5242 20.4797 20.0283 20.9756C19.5324 21.4715 18.8595 21.7499 18.1582 21.75H4.89453C4.19318 21.7499 3.52035 21.4715 3.02441 20.9756C2.52848 20.4797 2.25005 19.8068 2.25 19.1055V5.8418C2.25008 5.14048 2.5285 4.46759 3.02441 3.97168C3.52035 3.47578 4.1932 3.19732 4.89453 3.19727H12ZM15.7891 12.5879C15.4857 12.588 15.195 12.7084 14.9805 12.9229L7.65234 20.25H18.1582C18.4617 20.2499 18.7532 20.1296 18.9678 19.915C19.1824 19.7004 19.3027 19.409 19.3027 19.1055V15.626L16.5986 12.9229C16.384 12.7082 16.0926 12.5879 15.7891 12.5879Z" fill="currentColor"/>
<path fill-rule="evenodd" clip-rule="evenodd" d="M8.68457 6.9873C10.1451 6.9875 11.3291 8.17131 11.3291 9.63184C11.329 11.0922 10.145 12.2762 8.68457 12.2764C7.22401 12.2764 6.0392 11.0924 6.03906 9.63184C6.03906 8.17119 7.22392 6.9873 8.68457 6.9873ZM8.68457 8.4873C8.05235 8.4873 7.53906 8.99961 7.53906 9.63184C7.5392 10.2639 8.05243 10.7764 8.68457 10.7764C9.31654 10.7762 9.82896 10.2638 9.8291 9.63184C9.8291 8.99973 9.31663 8.4875 8.68457 8.4873Z" fill="currentColor"/>
<path d="M18.1582 2.25C18.5723 2.25017 18.9082 2.58589 18.9082 3V5.0918H21C21.4141 5.0918 21.7498 5.42773 21.75 5.8418C21.75 6.25601 21.4142 6.5918 21 6.5918H18.9082V8.68457C18.908 9.09852 18.5722 9.4344 18.1582 9.43457C17.7441 9.43457 17.4084 9.09862 17.4082 8.68457V6.5918H15.3154C14.9014 6.5916 14.5654 6.25589 14.5654 5.8418C14.5656 5.42784 14.9015 5.09199 15.3154 5.0918H17.4082V3C17.4082 2.58579 17.744 2.25 18.1582 2.25Z" fill="currentColor"/>
</svg>
