<svg width="24" height="24" viewBox="0 0 24 24" fill="none" xmlns="http://www.w3.org/2000/svg">
<g clip-path="url(#clip0_865_22327)">
<path d="M20 18.75C20 19.4404 19.4404 20 18.75 20H5.25C4.55963 20 4 19.4404 4 18.75V5.25C4 4.55963 4.55963 4 5.25 4H18.75C19.4404 4 20 4.55963 20 5.25V18.75Z" fill="#FFE812"/>
<path d="M12 6.25C8.41013 6.25 5.5 8.54456 5.5 11.375C5.5 13.2049 6.71663 14.8106 8.54675 15.7173C8.44719 16.0607 7.90694 17.9263 7.88544 18.0729C7.88544 18.0729 7.8725 18.183 7.94381 18.225C8.01513 18.267 8.099 18.2344 8.099 18.2344C8.3035 18.2058 10.4704 16.6837 10.8455 16.4194C11.2202 16.4724 11.606 16.5 12 16.5C15.5899 16.5 18.5 14.2055 18.5 11.375C18.5 8.54456 15.5899 6.25 12 6.25Z" fill="black"/>
<path d="M8.40625 13.1641C8.19944 13.1641 8.03125 13.0034 8.03125 12.8059V10.5781H7.44613C7.24319 10.5781 7.07812 10.4134 7.07812 10.2109C7.07812 10.0085 7.24325 9.84375 7.44613 9.84375H9.36638C9.56931 9.84375 9.73438 10.0085 9.73438 10.2109C9.73438 10.4134 9.56925 10.5781 9.36638 10.5781H8.78125V12.8059C8.78125 13.0034 8.61306 13.1641 8.40625 13.1641ZM11.6945 13.1592C11.5381 13.1592 11.4185 13.0957 11.3824 12.9936L11.1968 12.5074L10.0533 12.5074L9.86744 12.9938C9.8315 13.0958 9.71194 13.1592 9.55556 13.1592C9.47331 13.1593 9.392 13.1416 9.31719 13.1074C9.21381 13.0597 9.11444 12.9286 9.22831 12.5749L10.1253 10.2139C10.1885 10.0344 10.3804 9.84937 10.6247 9.84381C10.8696 9.84931 11.0616 10.0344 11.1249 10.2143L12.0215 12.5743C12.1356 12.9288 12.0363 13.0599 11.9329 13.1075C11.858 13.1416 11.7767 13.1593 11.6945 13.1592ZM10.9996 11.8432L10.625 10.7791L10.2504 11.8432H10.9996ZM12.625 13.1094C12.4268 13.1094 12.2656 12.9551 12.2656 12.7656V10.2188C12.2656 10.0119 12.4374 9.84375 12.6484 9.84375C12.8595 9.84375 13.0313 10.0119 13.0313 10.2188V12.4219H13.8281C14.0263 12.4219 14.1875 12.5761 14.1875 12.7656C14.1875 12.9551 14.0263 13.1094 13.8281 13.1094H12.625ZM14.7084 13.1592C14.5016 13.1592 14.3334 12.991 14.3334 12.7842V10.2188C14.3334 10.0119 14.5016 9.84375 14.7084 9.84375C14.9152 9.84375 15.0834 10.0119 15.0834 10.2188V11.0248L16.1296 9.9785C16.1834 9.92469 16.2574 9.89506 16.3376 9.89506C16.4313 9.89506 16.5253 9.93544 16.5957 10.0058C16.6614 10.0714 16.7006 10.1559 16.7059 10.2436C16.7114 10.332 16.6819 10.4131 16.6232 10.4719L15.7686 11.3263L16.6917 12.5492C16.7215 12.5884 16.7432 12.6332 16.7556 12.6809C16.7679 12.7286 16.7707 12.7782 16.7637 12.827C16.757 12.8758 16.7407 12.9228 16.7157 12.9652C16.6907 13.0077 16.6576 13.0448 16.6182 13.0743C16.5533 13.1236 16.4741 13.1502 16.3926 13.15C16.3345 13.1503 16.2772 13.1369 16.2251 13.111C16.1731 13.0852 16.1279 13.0474 16.0931 13.0009L15.2136 11.8357L15.0835 11.9658V12.784C15.0834 12.8835 15.0438 12.9788 14.9735 13.0491C14.9032 13.1195 14.8078 13.1591 14.7084 13.1592Z" fill="#FFE812"/>
</g>
<defs>
<clipPath id="clip0_865_22327">
<rect width="16" height="16" fill="white" transform="translate(4 4)"/>
</clipPath>
</defs>
</svg>
