<svg width="37" height="34" viewBox="0 0 37 34" fill="none" xmlns="http://www.w3.org/2000/svg">
<path d="M18.5 0C21.8449 0 24.9385 0.647609 27.781 1.94283C30.6234 3.23805 32.8706 4.99929 34.5223 7.22652C36.1741 9.45367 37 11.8831 37 14.5147C37 17.1462 36.1741 19.579 34.5223 21.8131C32.8706 24.0472 30.6268 25.8118 27.7913 27.107C24.9557 28.4022 21.8586 29.0499 18.5 29.0499C17.4401 29.0499 16.3458 28.9745 15.2171 28.8237C10.3167 32.2091 7.70836 33.9224 7.39176 33.9634C7.24033 34.0183 7.09576 34.0114 6.95814 33.9429C6.90306 33.9018 6.86178 33.8469 6.83424 33.7784C6.8067 33.7099 6.79297 33.6482 6.79297 33.5934V33.5112C6.87559 32.9766 7.50185 30.7494 8.67188 26.8295C6.01525 25.5137 3.90578 23.7696 2.34347 21.5972C0.781158 19.4249 0 17.064 0 14.5147C0 11.8831 0.825893 9.45367 2.47768 7.22652C4.12947 4.99929 6.37658 3.23805 9.21903 1.94283C12.0615 0.647609 15.1551 0 18.5 0Z" fill="currentColor"/>
</svg>
