<svg width="24" height="24" viewBox="0 0 24 24" fill="none" xmlns="http://www.w3.org/2000/svg">
<path d="M12.5 5C14.0368 5 15.4582 5.28571 16.7642 5.85713C18.0702 6.42855 19.1027 7.20557 19.8616 8.18817C20.6205 9.17074 21 10.2425 21 11.4035C21 12.5645 20.6205 13.6378 19.8616 14.6234C19.1027 15.6091 18.0718 16.3876 16.769 16.959C15.4661 17.5304 14.0431 17.8161 12.5 17.8161C12.013 17.8161 11.5102 17.7828 10.9916 17.7164C8.74013 19.2099 7.54168 19.9658 7.39621 19.9839C7.32664 20.0081 7.26021 20.005 7.19698 19.9748C7.17167 19.9567 7.15271 19.9325 7.14006 19.9022C7.1274 19.872 7.12109 19.8448 7.12109 19.8206V19.7843C7.15906 19.5485 7.44679 18.5659 7.98438 16.8365C6.76377 16.2561 5.79455 15.4866 5.07673 14.5282C4.35891 13.5698 4 12.5282 4 11.4035C4 10.2425 4.37946 9.17074 5.13839 8.18817C5.89732 7.20557 6.92978 6.42855 8.23577 5.85713C9.54175 5.28571 10.9632 5 12.5 5Z" fill="currentColor"/>
</svg>
