<svg width="18" height="18" viewBox="0 0 18 18" fill="none" xmlns="http://www.w3.org/2000/svg">
<g clip-path="url(#clip0_864_22307)">
<path d="M13.9421 0H4.05787C1.81677 0 0 1.81677 0 4.05787V13.9421C0 16.1832 1.81677 18 4.05787 18H13.9421C16.1832 18 18 16.1832 18 13.9421V4.05787C18 1.81677 16.1832 0 13.9421 0Z" fill="#06C755"/>
<path d="M14.9996 8.15174C14.9996 5.46637 12.3075 3.28162 8.99832 3.28162C5.68913 3.28162 2.99701 5.46637 2.99701 8.15174C2.99701 10.5592 5.13451 12.5758 8.01563 12.9566C8.21138 12.9988 8.47745 13.0854 8.54438 13.2525C8.60513 13.4044 8.58432 13.6423 8.56407 13.7953C8.56407 13.7953 8.49376 14.2189 8.47857 14.3089C8.45213 14.4607 8.35763 14.9023 8.99832 14.6329C9.63901 14.3634 12.4543 12.5977 13.7132 11.1482C14.5828 10.1947 14.9996 9.22499 14.9996 8.15174Z" fill="white"/>
<path d="M13.0028 9.70257H11.3153C11.2854 9.70257 11.2568 9.69072 11.2357 9.66962C11.2146 9.64852 11.2028 9.61991 11.2028 9.59007V6.97163C11.2028 6.94179 11.2146 6.91318 11.2357 6.89208C11.2568 6.87098 11.2854 6.85913 11.3153 6.85913H13.0028C13.0326 6.85913 13.0612 6.87098 13.0823 6.89208C13.1034 6.91318 13.1153 6.94179 13.1153 6.97163V7.39744C13.1153 7.42728 13.1034 7.45589 13.0823 7.47699C13.0612 7.49809 13.0326 7.50994 13.0028 7.50994H11.8569V7.95151H13.0028C13.0326 7.95151 13.0612 7.96336 13.0823 7.98446C13.1034 8.00555 13.1153 8.03417 13.1153 8.06401V8.49376C13.1153 8.52359 13.1034 8.55221 13.0823 8.57331C13.0612 8.5944 13.0326 8.60626 13.0028 8.60626H11.8569V9.04838H13.0028C13.0326 9.04838 13.0612 9.06023 13.0823 9.08133C13.1034 9.10243 13.1153 9.13104 13.1153 9.16088V9.58613C13.1158 9.60123 13.1133 9.61629 13.1079 9.63039C13.1024 9.6445 13.0942 9.65737 13.0837 9.66824C13.0732 9.6791 13.0607 9.68775 13.0467 9.69364C13.0328 9.69954 13.0179 9.70258 13.0028 9.70257Z" fill="#06C755"/>
<path d="M6.7663 9.70252C6.79614 9.70252 6.82475 9.69067 6.84585 9.66957C6.86695 9.64847 6.8788 9.61986 6.8788 9.59002V9.16477C6.8788 9.13493 6.86695 9.10632 6.84585 9.08522C6.82475 9.06412 6.79614 9.05227 6.7663 9.05227H5.62049V6.97102C5.62049 6.94118 5.60863 6.91257 5.58754 6.89147C5.56644 6.87037 5.53782 6.85852 5.50799 6.85852H5.08049C5.05065 6.85852 5.02204 6.87037 5.00094 6.89147C4.97984 6.91257 4.96799 6.94118 4.96799 6.97102V9.58833C4.96799 9.61817 4.97984 9.64678 5.00094 9.66788C5.02204 9.68898 5.05065 9.70083 5.08049 9.70083H6.76799L6.7663 9.70252Z" fill="#06C755"/>
<path d="M7.78106 6.854H7.35581C7.29243 6.854 7.24106 6.90538 7.24106 6.96875V9.58775C7.24106 9.65113 7.29243 9.7025 7.35581 9.7025H7.78106C7.84443 9.7025 7.89581 9.65113 7.89581 9.58775V6.96875C7.89581 6.90538 7.84443 6.854 7.78106 6.854Z" fill="#06C755"/>
<path d="M10.6785 6.854H10.2533C10.2234 6.854 10.1948 6.86586 10.1737 6.88695C10.1526 6.90805 10.1408 6.93667 10.1408 6.9665V8.52238L8.94263 6.90407C8.9399 6.89978 8.93669 6.89582 8.93307 6.89225L8.92632 6.8855L8.92014 6.88044H8.91676L8.91057 6.87594H8.9072L8.90101 6.87257H8.89707H8.89088H8.88695H8.8802H8.8757H8.86895H8.86445H8.85826H8.42457C8.39474 6.87257 8.36612 6.88442 8.34502 6.90552C8.32393 6.92661 8.31207 6.95523 8.31207 6.98507V9.60407C8.31207 9.6339 8.32393 9.66252 8.34502 9.68362C8.36612 9.70471 8.39474 9.71657 8.42457 9.71657H8.85038C8.88022 9.71657 8.90884 9.70471 8.92993 9.68362C8.95103 9.66252 8.96288 9.6339 8.96288 9.60407V8.033L10.1627 9.653C10.1706 9.66448 10.1805 9.6744 10.1919 9.68225L10.1987 9.68675H10.2021L10.2077 9.68957H10.2133H10.2173H10.2251C10.2351 9.69202 10.2453 9.69334 10.2555 9.6935H10.6785C10.7083 9.6935 10.737 9.68165 10.7581 9.66055C10.7792 9.63946 10.791 9.61084 10.791 9.581V6.96875C10.7913 6.95379 10.7886 6.93892 10.7831 6.92501C10.7776 6.9111 10.7693 6.89843 10.7589 6.88775C10.7484 6.87706 10.7359 6.86857 10.7221 6.86278C10.7083 6.85698 10.6935 6.854 10.6785 6.854Z" fill="#06C755"/>
</g>
<defs>
<clipPath id="clip0_864_22307">
<rect width="18" height="18" fill="white"/>
</clipPath>
</defs>
</svg>
