<svg width="24" height="24" viewBox="0 0 24 24" fill="none" xmlns="http://www.w3.org/2000/svg">
<g clip-path="url(#clip0_865_22326)">
<path d="M16.9421 3H7.05787C4.81677 3 3 4.81677 3 7.05787V16.9421C3 19.1832 4.81677 21 7.05787 21H16.9421C19.1832 21 21 19.1832 21 16.9421V7.05787C21 4.81677 19.1832 3 16.9421 3Z" fill="#06C755"/>
<path d="M17.9996 11.1517C17.9996 8.46637 15.3075 6.28162 11.9983 6.28162C8.68912 6.28162 5.99699 8.46637 5.99699 11.1517C5.99699 13.5592 8.13449 15.5758 11.0156 15.9566C11.2114 15.9988 11.4774 16.0854 11.5444 16.2525C11.6051 16.4044 11.5843 16.6423 11.5641 16.7953C11.5641 16.7953 11.4937 17.2189 11.4786 17.3089C11.4521 17.4607 11.3576 17.9023 11.9983 17.6329C12.639 17.3634 15.4543 15.5977 16.7132 14.1482C17.5828 13.1947 17.9996 12.225 17.9996 11.1517Z" fill="white"/>
<path d="M16.0027 12.7026H14.3152C14.2854 12.7026 14.2568 12.6907 14.2357 12.6696C14.2146 12.6485 14.2027 12.6199 14.2027 12.5901V9.97163C14.2027 9.94179 14.2146 9.91318 14.2357 9.89208C14.2568 9.87098 14.2854 9.85913 14.3152 9.85913H16.0027C16.0326 9.85913 16.0612 9.87098 16.0823 9.89208C16.1034 9.91318 16.1152 9.94179 16.1152 9.97163V10.3974C16.1152 10.4273 16.1034 10.4559 16.0823 10.477C16.0612 10.4981 16.0326 10.5099 16.0027 10.5099H14.8569V10.9515H16.0027C16.0326 10.9515 16.0612 10.9634 16.0823 10.9845C16.1034 11.0056 16.1152 11.0342 16.1152 11.064V11.4938C16.1152 11.5236 16.1034 11.5522 16.0823 11.5733C16.0612 11.5944 16.0326 11.6063 16.0027 11.6063H14.8569V12.0484H16.0027C16.0326 12.0484 16.0612 12.0602 16.0823 12.0813C16.1034 12.1024 16.1152 12.131 16.1152 12.1609V12.5861C16.1158 12.6012 16.1133 12.6163 16.1078 12.6304C16.1024 12.6445 16.0942 12.6574 16.0837 12.6682C16.0732 12.6791 16.0606 12.6877 16.0467 12.6936C16.0328 12.6995 16.0179 12.7026 16.0027 12.7026Z" fill="#06C755"/>
<path d="M9.76631 12.7025C9.79615 12.7025 9.82477 12.6907 9.84586 12.6696C9.86696 12.6485 9.87881 12.6199 9.87881 12.59V12.1648C9.87881 12.1349 9.86696 12.1063 9.84586 12.0852C9.82477 12.0641 9.79615 12.0523 9.76631 12.0523H8.6205V9.97102C8.6205 9.94118 8.60865 9.91257 8.58755 9.89147C8.56645 9.87037 8.53784 9.85852 8.508 9.85852H8.0805C8.05067 9.85852 8.02205 9.87037 8.00095 9.89147C7.97985 9.91257 7.968 9.94118 7.968 9.97102V12.5883C7.968 12.6182 7.97985 12.6468 8.00095 12.6679C8.02205 12.689 8.05067 12.7008 8.0805 12.7008H9.768L9.76631 12.7025Z" fill="#06C755"/>
<path d="M10.7811 9.854H10.3558C10.2924 9.854 10.2411 9.90538 10.2411 9.96875V12.5878C10.2411 12.6511 10.2924 12.7025 10.3558 12.7025H10.7811C10.8444 12.7025 10.8958 12.6511 10.8958 12.5878V9.96875C10.8958 9.90538 10.8444 9.854 10.7811 9.854Z" fill="#06C755"/>
<path d="M13.6785 9.854H13.2532C13.2234 9.854 13.1948 9.86586 13.1737 9.88695C13.1526 9.90805 13.1407 9.93667 13.1407 9.9665V11.5224L11.9426 9.90407C11.9399 9.89978 11.9367 9.89582 11.9331 9.89225L11.9263 9.8855L11.9201 9.88044H11.9167L11.9106 9.87594H11.9072L11.901 9.87257H11.8971H11.8909H11.8869H11.8802H11.8757H11.8689H11.8644H11.8582H11.4246C11.3947 9.87257 11.3661 9.88442 11.345 9.90552C11.3239 9.92661 11.3121 9.95523 11.3121 9.98507V12.6041C11.3121 12.6339 11.3239 12.6625 11.345 12.6836C11.3661 12.7047 11.3947 12.7166 11.4246 12.7166H11.8504C11.8802 12.7166 11.9088 12.7047 11.9299 12.6836C11.951 12.6625 11.9629 12.6339 11.9629 12.6041V11.033L13.1627 12.653C13.1705 12.6645 13.1805 12.6744 13.1919 12.6823L13.1987 12.6868H13.2021L13.2077 12.6896H13.2133H13.2172H13.2251C13.2351 12.692 13.2453 12.6933 13.2555 12.6935H13.6785C13.7083 12.6935 13.7369 12.6817 13.758 12.6606C13.7791 12.6395 13.791 12.6108 13.791 12.581V9.96875C13.7913 9.95379 13.7886 9.93892 13.7831 9.92501C13.7776 9.9111 13.7693 9.89843 13.7589 9.88775C13.7484 9.87706 13.7359 9.86857 13.7221 9.86278C13.7083 9.85698 13.6935 9.854 13.6785 9.854Z" fill="#06C755"/>
</g>
<defs>
<clipPath id="clip0_865_22326">
<rect width="18" height="18" fill="white" transform="translate(3 3)"/>
</clipPath>
</defs>
</svg>
