<svg width="24" height="24" viewBox="0 0 24 24" fill="none" xmlns="http://www.w3.org/2000/svg">
<path d="M10.6816 8.75873C11.3846 8.80909 12.0689 9.00975 12.6874 9.3476C13.2287 9.64332 13.709 10.0385 14.1035 10.5107L14.2675 10.7177L14.3105 10.7812C14.5063 11.107 14.427 11.5349 14.1161 11.7675C13.8053 12 13.3725 11.9554 13.1152 11.6757L13.0663 11.6162L12.9521 11.4726C12.678 11.1445 12.3448 10.8695 11.9687 10.664C11.5388 10.4292 11.0628 10.2898 10.5742 10.2548C10.0856 10.2199 9.59461 10.2907 9.13568 10.4619C8.67695 10.6331 8.26019 10.9007 7.914 11.247L5.42279 13.7382L5.30951 13.8613C4.7589 14.4903 4.45655 15.3017 4.46381 16.1415C4.47166 17.0372 4.83148 17.8939 5.46478 18.5273C6.09816 19.1607 6.95485 19.5204 7.85053 19.5283C8.74628 19.536 9.60947 19.1915 10.2538 18.5693L11.6699 17.1533C11.9627 16.8605 12.4375 16.8606 12.7304 17.1533C13.0233 17.4461 13.0232 17.9209 12.7304 18.2138L11.2958 19.6484C10.3686 20.5438 9.12679 21.0394 7.83783 21.0283C6.54876 21.017 5.31578 20.4994 4.40424 19.5878C3.49276 18.6763 2.97501 17.4433 2.96381 16.1542C2.95268 14.8653 3.44832 13.6234 4.34369 12.6962L6.85346 10.1865C7.3518 9.68804 7.95188 9.30293 8.61224 9.05658C9.27269 8.81024 9.97849 8.7084 10.6816 8.75873Z" fill="currentColor"/>
<path d="M16.162 2.97162C17.4511 2.98284 18.6841 3.50059 19.5956 4.41205C20.5071 5.32359 21.0248 6.55661 21.0361 7.84564C21.0473 9.13457 20.5515 10.3764 19.6562 11.3037L17.1464 13.8134C16.648 14.3119 16.0481 14.6969 15.3876 14.9433C14.7271 15.1897 14.0215 15.2915 13.3183 15.2412C12.6153 15.1908 11.931 14.9901 11.3124 14.6523C10.7712 14.3565 10.2908 13.9613 9.89642 13.4892L9.73236 13.2822L9.68939 13.2187C9.4937 12.8929 9.57282 12.4649 9.88373 12.2324C10.1946 11.9999 10.6274 12.0446 10.8847 12.3242L10.9335 12.3837L11.0478 12.5273C11.3219 12.8554 11.6551 13.1304 12.0312 13.3359C12.4611 13.5707 12.9371 13.71 13.4257 13.7451C13.9142 13.78 14.4044 13.7091 14.8632 13.538C15.3222 13.3668 15.7395 13.0993 16.0859 12.7529L18.5771 10.2617C19.1993 9.6173 19.5439 8.75406 19.5361 7.85834C19.5282 6.9627 19.1684 6.10596 18.5351 5.4726C17.9017 4.83933 17.045 4.47951 16.1494 4.47162C15.2537 4.46389 14.3904 4.80843 13.746 5.4306L12.3203 6.84857L12.2626 6.89935C11.9674 7.13862 11.5334 7.12 11.2597 6.84467C10.9679 6.5509 10.969 6.07608 11.2626 5.78412L12.6962 4.35932L12.7031 4.3515C13.6303 3.45617 14.8732 2.96047 16.162 2.97162Z" fill="currentColor"/>
</svg>
