<svg width="24" height="24" viewBox="0 0 24 24" fill="none" xmlns="http://www.w3.org/2000/svg">
<path fill-rule="evenodd" clip-rule="evenodd" d="M12 2.9165C13.3039 2.91659 14.5546 3.43496 15.4766 4.35693C16.3984 5.27896 16.916 6.52967 16.916 7.8335V10.4165H17.833C19.1677 10.4165 20.25 11.4988 20.25 12.8335V18.6665C20.25 20.0012 19.1677 21.0835 17.833 21.0835H6.16699C4.8323 21.0835 3.75 20.0012 3.75 18.6665V12.8335C3.75 11.4988 4.8323 10.4165 6.16699 10.4165H7.08301V7.8335C7.08301 6.52952 7.60138 5.27899 8.52344 4.35693C9.44549 3.43488 10.696 2.9165 12 2.9165ZM6.16699 11.9165C5.66073 11.9165 5.25 12.3272 5.25 12.8335V18.6665C5.25 19.1728 5.66073 19.5835 6.16699 19.5835H17.833C18.3393 19.5835 18.75 19.1728 18.75 18.6665V12.8335C18.75 12.3272 18.3393 11.9165 17.833 11.9165H6.16699ZM12 4.4165C11.0938 4.4165 10.2247 4.77673 9.58398 5.41748C8.94323 6.05823 8.58301 6.92734 8.58301 7.8335V10.4165H15.416V7.8335C15.416 6.92749 15.0566 6.0582 14.416 5.41748C13.7753 4.77681 12.906 4.41659 12 4.4165Z" fill="currentColor"/>
</svg>
