<svg width="24" height="24" viewBox="0 0 24 24" fill="none" xmlns="http://www.w3.org/2000/svg">
<path d="M17.833 3.75C18.4739 3.75 19.0888 4.00479 19.542 4.45801C19.9952 4.91122 20.25 5.52605 20.25 6.16699V17.833C20.25 18.4739 19.9952 19.0888 19.542 19.542C19.0888 19.9952 18.4739 20.25 17.833 20.25H14.5C14.0858 20.25 13.75 19.9142 13.75 19.5C13.75 19.0858 14.0858 18.75 14.5 18.75H17.833C18.0761 18.75 18.3095 18.6534 18.4814 18.4814C18.6534 18.3095 18.75 18.0761 18.75 17.833V6.16699C18.75 5.92388 18.6534 5.69046 18.4814 5.51855C18.3095 5.34665 18.0761 5.25 17.833 5.25H14.5C14.0858 5.25 13.75 4.91421 13.75 4.5C13.75 4.08579 14.0858 3.75 14.5 3.75H17.833Z" fill="currentColor"/>
<path d="M9.80273 7.30273C10.0956 7.00984 10.5704 7.00984 10.8633 7.30273L15.0303 11.4697C15.0362 11.4756 15.0412 11.4822 15.0469 11.4883C15.0518 11.4935 15.0568 11.4986 15.0615 11.5039C15.087 11.5327 15.1096 11.5632 15.1299 11.5947C15.1498 11.6257 15.1663 11.6585 15.1816 11.6924C15.1858 11.7017 15.1915 11.7103 15.1953 11.7197C15.2065 11.7473 15.2129 11.7765 15.2207 11.8057C15.2549 11.9331 15.2547 12.0659 15.2207 12.1934C15.2129 12.2225 15.2064 12.2517 15.1953 12.2793C15.1915 12.2887 15.1858 12.2973 15.1816 12.3066C15.1664 12.3405 15.1498 12.3733 15.1299 12.4043C15.1096 12.4359 15.087 12.4662 15.0615 12.4951C15.0568 12.5005 15.0518 12.5055 15.0469 12.5107C15.0411 12.517 15.0363 12.5242 15.0303 12.5303L10.8633 16.6963C10.5704 16.9892 10.0956 16.9892 9.80273 16.6963C9.51 16.4034 9.5099 15.9286 9.80273 15.6357L12.6875 12.75H4.5C4.08579 12.75 3.75 12.4142 3.75 12C3.75 11.5858 4.08579 11.25 4.5 11.25H12.6895L9.80273 8.36328C9.50984 8.07039 9.50984 7.59563 9.80273 7.30273Z" fill="currentColor"/>
</svg>
