<svg width="24" height="24" viewBox="0 0 24 24" fill="none" xmlns="http://www.w3.org/2000/svg">
<path d="M9.57898 3.75391C9.95695 3.79253 10.2518 4.11183 10.2518 4.5C10.2518 4.88817 9.95695 5.20747 9.57898 5.24609L9.50183 5.25H6.16882C5.92571 5.25 5.69229 5.34665 5.52039 5.51855C5.34848 5.69046 5.25183 5.92388 5.25183 6.16699V17.833C5.25183 18.0761 5.34848 18.3095 5.52039 18.4814C5.69229 18.6534 5.92571 18.75 6.16882 18.75H9.50183L9.57898 18.7539C9.95695 18.7925 10.2518 19.1118 10.2518 19.5C10.2518 19.8882 9.95695 20.2075 9.57898 20.2461L9.50183 20.25H6.16882C5.52788 20.25 4.91305 19.9952 4.45984 19.542C4.00663 19.0888 3.75183 18.4739 3.75183 17.833V6.16699C3.75183 5.52605 4.00663 4.91122 4.45984 4.45801C4.91305 4.00479 5.52788 3.75 6.16882 3.75H9.50183L9.57898 3.75391Z" fill="currentColor"/>
<path d="M14.8046 7.30273C15.0975 7.00984 15.5722 7.00984 15.8651 7.30273L20.0321 11.4697C20.038 11.4756 20.0431 11.4822 20.0487 11.4883C20.0536 11.4935 20.0586 11.4986 20.0634 11.5039C20.0889 11.5327 20.1114 11.5632 20.1317 11.5947C20.1517 11.6257 20.1682 11.6585 20.1835 11.6924C20.1877 11.7017 20.1933 11.7103 20.1971 11.7197C20.2083 11.7473 20.2147 11.7765 20.2225 11.8057C20.2568 11.9331 20.2566 12.0659 20.2225 12.1934C20.2147 12.2225 20.2083 12.2517 20.1971 12.2793C20.1934 12.2887 20.1877 12.2973 20.1835 12.3066C20.1682 12.3405 20.1516 12.3733 20.1317 12.4043C20.1114 12.4359 20.0889 12.4662 20.0634 12.4951C20.0586 12.5005 20.0536 12.5055 20.0487 12.5107C20.0429 12.517 20.0382 12.5242 20.0321 12.5303L15.8651 16.6963C15.5722 16.9892 15.0975 16.9892 14.8046 16.6963C14.5118 16.4034 14.5117 15.9286 14.8046 15.6357L17.6893 12.75H9.50183C9.08762 12.75 8.75183 12.4142 8.75183 12C8.75183 11.5858 9.08762 11.25 9.50183 11.25H17.6913L14.8046 8.36328C14.5117 8.07039 14.5117 7.59563 14.8046 7.30273Z" fill="currentColor"/>
</svg>
