<svg width="24" height="24" viewBox="0 0 24 24" fill="none" xmlns="http://www.w3.org/2000/svg">
<path d="M9.78293 7.63314C10.3348 7.63314 10.8229 7.85708 11.2082 8.19137C11.5251 8.46649 11.5594 8.94626 11.2844 9.2633C11.0264 9.56065 10.5879 9.60907 10.2729 9.38702L10.2115 9.33951L10.0947 9.25142C9.98068 9.17971 9.87534 9.15344 9.78293 9.15344C9.60441 9.15362 9.34951 9.26266 9.10494 9.62952C8.86386 9.99138 8.69022 10.5353 8.69022 11.1736C8.69028 11.8119 8.86374 12.3558 9.10494 12.7176C9.34951 13.0845 9.60442 13.1925 9.78293 13.1927C9.9061 13.1927 10.0517 13.1461 10.2115 13.0076L10.2729 12.9591C10.5879 12.7372 11.0264 12.7856 11.2844 13.0828C11.5595 13.3999 11.5253 13.8806 11.2082 14.1558L11.0588 14.2755C10.6998 14.5422 10.2657 14.713 9.78293 14.713C8.93814 14.7128 8.26591 14.1998 7.84 13.5609C7.41053 12.9167 7.16999 12.0702 7.16993 11.1736C7.16993 10.277 7.41067 9.43046 7.84 8.78623C8.26591 8.14737 8.93813 7.63332 9.78293 7.63314Z" fill="currentColor"/>
<path d="M14.4161 7.63314C14.9679 7.63314 15.4561 7.85708 15.8414 8.19137C16.1582 8.46649 16.1925 8.94626 15.9176 9.2633C15.6595 9.56065 15.2211 9.60907 14.906 9.38702L14.8446 9.33951L14.7279 9.25142C14.6138 9.17971 14.5085 9.15344 14.4161 9.15344C14.2376 9.15362 13.9827 9.26266 13.7381 9.62952C13.497 9.99138 13.3234 10.5353 13.3234 11.1736C13.3234 11.8119 13.4969 12.3558 13.7381 12.7176C13.9826 13.0845 14.2376 13.1925 14.4161 13.1927C14.5392 13.1927 14.6849 13.1461 14.8446 13.0076L14.906 12.9591C15.221 12.7372 15.6596 12.7856 15.9176 13.0828C16.1927 13.3999 16.1584 13.8806 15.8414 14.1558L15.6919 14.2755C15.3329 14.5422 14.8988 14.713 14.4161 14.713C13.5713 14.7128 12.8991 14.1998 12.4731 13.5609C12.0437 12.9167 11.8031 12.0702 11.8031 11.1736C11.8031 10.277 12.0438 9.43046 12.4731 8.78623C12.8991 8.14737 13.5713 7.63332 14.4161 7.63314Z" fill="currentColor"/>
<path fill-rule="evenodd" clip-rule="evenodd" d="M12.1 3C17.1258 3 21.2 7.07421 21.2 12.1C21.2 13.8134 20.7223 15.4152 19.8984 16.7836L20.8556 19.262L20.8565 19.263C21.2577 20.3043 20.2134 21.3203 19.1828 20.8862L16.8084 19.8846C15.4344 20.7175 13.8233 21.2 12.1 21.2C7.07423 21.2 3.00003 17.1258 3 12.1C3.00003 7.07423 7.07423 3.00003 12.1 3ZM12.1 4.5203C7.91386 4.52033 4.52033 7.91386 4.5203 12.1C4.52033 16.2861 7.91385 19.6797 12.1 19.6797C13.661 19.6797 15.1091 19.2072 16.3145 18.3989C16.527 18.2564 16.7972 18.2304 17.033 18.3296L19.2224 19.2521L18.3445 16.9766C18.2558 16.7469 18.2837 16.4881 18.4197 16.2828C19.2151 15.0836 19.6797 13.647 19.6797 12.1C19.6797 7.91383 16.2862 4.5203 12.1 4.5203Z" fill="currentColor"/>
</svg>
