<svg width="24" height="24" viewBox="0 0 24 24" fill="none" xmlns="http://www.w3.org/2000/svg">
<path d="M19.5771 16.2539C19.9551 16.2925 20.25 16.6118 20.25 17C20.25 17.3882 19.9551 17.7075 19.5771 17.7461L19.5 17.75H4.5C4.08579 17.75 3.75 17.4142 3.75 17C3.75 16.5858 4.08579 16.25 4.5 16.25H19.5L19.5771 16.2539Z" fill="currentColor"/>
<path d="M19.5771 11.2539C19.9551 11.2925 20.25 11.6118 20.25 12C20.25 12.3882 19.9551 12.7075 19.5771 12.7461L19.5 12.75H4.5C4.08579 12.75 3.75 12.4142 3.75 12C3.75 11.5858 4.08579 11.25 4.5 11.25H19.5L19.5771 11.2539Z" fill="currentColor"/>
<path d="M19.5771 6.25391C19.9551 6.29253 20.25 6.61183 20.25 7C20.25 7.38817 19.9551 7.70747 19.5771 7.74609L19.5 7.75H4.5C4.08579 7.75 3.75 7.41421 3.75 7C3.75 6.58579 4.08579 6.25 4.5 6.25H19.5L19.5771 6.25391Z" fill="currentColor"/>
</svg>
