<svg width="24" height="24" viewBox="0 0 24 24" fill="none" xmlns="http://www.w3.org/2000/svg">
<path d="M8.76753 10.7842C9.14579 10.8225 9.44136 11.1419 9.44136 11.5303C9.44123 11.9186 9.14573 12.2381 8.76753 12.2764L8.69136 12.2803H8.68159C8.26757 12.2802 7.93173 11.9443 7.93159 11.5303C7.93159 11.1162 8.26748 10.7804 8.68159 10.7803H8.69136L8.76753 10.7842Z" fill="currentColor"/>
<path d="M12.5556 10.7842C12.9338 10.8226 13.2294 11.142 13.2294 11.5303C13.2293 11.9185 12.9337 12.238 12.5556 12.2764L12.4794 12.2803H12.4697C12.0556 12.2803 11.7198 11.9444 11.7197 11.5303C11.7197 11.1161 12.0555 10.7803 12.4697 10.7803H12.4794L12.5556 10.7842Z" fill="currentColor"/>
<path d="M16.3437 10.7842C16.7218 10.8227 17.0175 11.142 17.0175 11.5303C17.0174 11.9184 16.7217 12.2379 16.3437 12.2764L16.2675 12.2803H16.2578C15.8436 12.2803 15.5079 11.9444 15.5078 11.5303C15.5078 11.1161 15.8436 10.7803 16.2578 10.7803H16.2675L16.3437 10.7842Z" fill="currentColor"/>
<path fill-rule="evenodd" clip-rule="evenodd" d="M7.01655 4.02834C8.80268 2.72696 10.9949 2.10649 13.1982 2.27834C15.4015 2.45029 17.4714 3.40316 19.0341 4.96584C20.5967 6.52856 21.5497 8.59852 21.7216 10.8018C21.8934 13.005 21.273 15.1973 19.9716 16.9834C18.6702 18.7696 16.773 20.0324 14.623 20.544C12.5784 21.0303 10.4327 20.8057 8.53609 19.9151L3.24116 21.71C2.97093 21.8016 2.67152 21.732 2.46968 21.5303C2.26786 21.3285 2.19841 21.0291 2.28999 20.7588L4.08394 15.4629C3.19367 13.5666 2.96977 11.4212 3.45601 9.37698C3.96752 7.22692 5.23035 5.32983 7.01655 4.02834ZM13.082 3.77346C11.2351 3.62938 9.39661 4.15031 7.89937 5.24123C6.4024 6.33216 5.34372 7.92164 4.91499 9.72365C4.48627 11.5258 4.71597 13.4221 5.56148 15.0703C5.65391 15.2507 5.66942 15.4614 5.60444 15.6533L4.19722 19.8018L8.34663 18.3955L8.4189 18.375C8.59039 18.3356 8.77165 18.3575 8.92964 18.4385C10.5779 19.2839 12.4742 19.5137 14.2763 19.085C16.0782 18.6562 17.6678 17.5975 18.7587 16.1006C19.8496 14.6034 20.3705 12.7649 20.2265 10.918C20.0824 9.07126 19.2833 7.33625 17.9736 6.02639C16.6638 4.71657 14.9287 3.91766 13.082 3.77346Z" fill="currentColor"/>
</svg>
