<svg width="24" height="24" viewBox="0 0 24 24" fill="none" xmlns="http://www.w3.org/2000/svg">
<path fill-rule="evenodd" clip-rule="evenodd" d="M14.4114 7.45241C15.1539 7.45249 15.8681 7.71934 16.4299 8.19753C16.5197 8.23889 16.6028 8.29913 16.6731 8.37722C17.2149 8.97937 17.5327 9.7524 17.5169 10.5745C17.5008 11.4028 17.1483 12.2223 16.4573 12.9134L16.4495 12.9202L13.0403 16.2346C12.7493 16.5176 12.2855 16.5174 11.9944 16.2346L8.61549 12.9505C8.29511 12.7071 8.0255 12.4025 7.8235 12.054C7.6107 11.6867 7.4767 11.2787 7.43092 10.8567C7.3852 10.4347 7.42866 10.0072 7.55787 9.60281C7.68714 9.19838 7.89983 8.82543 8.1819 8.50808C8.46392 8.19081 8.80919 7.93583 9.19557 7.76003C9.58202 7.58428 10.0015 7.49166 10.426 7.48757C10.8505 7.48353 11.2717 7.56828 11.6614 7.73659C11.9283 7.85192 12.1761 8.00571 12.3987 8.1907C12.9596 7.71613 13.6718 7.45241 14.4114 7.45241ZM14.4114 8.95241C14.0023 8.95241 13.6097 9.10815 13.3108 9.38601L13.0696 9.7073C12.9452 9.87309 12.758 9.98047 12.552 10.0032C12.346 10.0258 12.1391 9.96223 11.9817 9.82741L11.6506 9.54323C11.6287 9.52446 11.6077 9.50387 11.5881 9.48269C11.4422 9.32472 11.2641 9.19887 11.0667 9.11355C10.8692 9.02828 10.6557 8.98556 10.4407 8.98757C10.2255 8.98964 10.0125 9.0362 9.81666 9.12527C9.62093 9.21433 9.44589 9.34347 9.30299 9.50417C9.16001 9.66503 9.05211 9.85484 8.98659 10.0598C8.92123 10.2646 8.89903 10.4809 8.92213 10.6946C8.94534 10.9085 9.01349 11.1159 9.12135 11.302C9.22919 11.488 9.3752 11.6493 9.54909 11.7757C9.57791 11.7966 9.60556 11.8201 9.63112 11.845L12.5169 14.6507L15.3967 11.8499C15.8407 11.4053 16.0091 10.9472 16.0169 10.5452C16.0237 10.1863 15.9035 9.82597 15.6643 9.51003C15.6219 9.4828 15.5807 9.45098 15.5432 9.41433C15.241 9.11822 14.8345 8.9525 14.4114 8.95241Z" fill="currentColor"/>
<path fill-rule="evenodd" clip-rule="evenodd" d="M7.01686 4.02859C8.80299 2.72721 10.9952 2.10674 13.1985 2.27859C15.4018 2.45054 17.4718 3.4034 19.0344 4.96609C20.597 6.52881 21.5501 8.59877 21.7219 10.802C21.8937 13.0052 21.2733 15.1976 19.9719 16.9837C18.6705 18.7698 16.7733 20.0327 14.6233 20.5442C12.5787 21.0306 10.433 20.8059 8.53639 19.9153L3.24147 21.7102C2.97123 21.8018 2.67183 21.7322 2.46998 21.5305C2.26817 21.3287 2.19872 21.0294 2.2903 20.7591L4.08424 15.4632C3.19398 13.5668 2.97008 11.4215 3.45631 9.37722C3.96783 7.22717 5.23066 5.33007 7.01686 4.02859ZM13.0823 3.7737C11.2354 3.62962 9.39692 4.15055 7.89967 5.24148C6.40271 6.33241 5.34403 7.92188 4.9153 9.7239C4.48658 11.5261 4.71627 13.4223 5.56178 15.0706C5.65422 15.251 5.66973 15.4616 5.60475 15.6536L4.19752 19.802L8.34694 18.3958L8.4192 18.3753C8.59069 18.3358 8.77195 18.3577 8.92994 18.4387C10.5782 19.2841 12.4745 19.514 14.2766 19.0852C16.0786 18.6565 17.6682 17.5978 18.759 16.1009C19.85 14.6037 20.3708 12.7651 20.2268 10.9182C20.0827 9.07151 19.2836 7.33649 17.9739 6.02663C16.6641 4.71681 14.929 3.91791 13.0823 3.7737Z" fill="currentColor"/>
</svg>
