<svg width="24" height="24" viewBox="0 0 24 24" fill="none" xmlns="http://www.w3.org/2000/svg">
<path fill-rule="evenodd" clip-rule="evenodd" d="M12.8751 3.75085C14.7962 3.85692 16.6113 4.66775 17.9718 6.0282C19.3324 7.38874 20.1431 9.20372 20.2492 11.1249C20.2499 11.1386 20.2501 11.1531 20.2501 11.1669V11.5809L20.2375 12.037C20.1776 13.0977 19.9005 14.1366 19.4201 15.0878L19.4191 15.0868C18.7688 16.3869 17.7707 17.4814 16.5343 18.246C15.2974 19.0108 13.8715 19.4163 12.4171 19.4169C11.307 19.4195 10.2118 19.1794 9.20327 18.7216L4.73745 20.2118C4.46803 20.3015 4.17067 20.231 3.96987 20.0302C3.76916 19.8293 3.69847 19.532 3.78823 19.2626L5.27749 14.7958C4.81973 13.787 4.58026 12.6912 4.58315 11.5809C4.58409 10.1273 4.9895 8.7021 5.75405 7.4657C6.47114 6.30616 7.47819 5.35507 8.673 4.70496L8.91519 4.57898C10.001 4.03116 11.201 3.74799 12.4171 3.75085L12.8332 3.74988L12.8751 3.75085ZM12.4152 5.24988C11.4335 5.24737 10.4643 5.47722 9.58804 5.9198L9.58511 5.92078C8.53349 6.44648 7.64882 7.25483 7.03042 8.25476C6.41197 9.25487 6.08361 10.408 6.08315 11.5839C6.08059 12.5656 6.31049 13.5357 6.75308 14.412C6.84313 14.5904 6.85828 14.7976 6.79507 14.9872L5.68569 18.3134L9.01284 17.205C9.20236 17.1418 9.40966 17.157 9.58804 17.2469C10.4643 17.6895 11.4335 17.9194 12.4152 17.9169C13.591 17.9164 14.7452 17.588 15.7453 16.9696C16.7452 16.3512 17.5535 15.4666 18.0792 14.4149L18.0802 14.412C18.5229 13.5357 18.7527 12.5666 18.7501 11.5848V11.1952C18.6616 9.6473 18.0068 8.18625 16.9103 7.08972C15.8138 5.99329 14.3527 5.33839 12.8048 5.24988H12.4152Z" fill="currentColor"/>
</svg>
