<svg width="24" height="24" viewBox="0 0 24 24" fill="none" xmlns="http://www.w3.org/2000/svg">
<path fill-rule="evenodd" clip-rule="evenodd" d="M12 16.25C12.8741 16.2503 13.5838 16.9589 13.584 17.833C13.584 18.7073 12.8742 19.4167 12 19.417C11.1257 19.4168 10.416 18.7074 10.416 17.833C10.4162 16.9588 11.1258 16.2502 12 16.25ZM12 17.75C11.9542 17.7502 11.9172 17.7872 11.917 17.833C11.917 17.8789 11.9541 17.9168 12 17.917C12.0458 17.9167 12.084 17.8789 12.084 17.833C12.0838 17.7873 12.0457 17.7503 12 17.75Z" fill="currentColor"/>
<path fill-rule="evenodd" clip-rule="evenodd" d="M12 10.417C12.8741 10.4173 13.5838 11.1259 13.584 12C13.584 12.8743 12.8742 13.5837 12 13.584C11.1257 13.5838 10.416 12.8743 10.416 12C10.4162 11.1258 11.1258 10.4172 12 10.417ZM12 11.917C11.9542 11.9172 11.9172 11.9542 11.917 12C11.917 12.0459 11.9541 12.0838 12 12.084C12.0458 12.0837 12.084 12.0459 12.084 12C12.0838 11.9543 12.0457 11.9173 12 11.917Z" fill="currentColor"/>
<path fill-rule="evenodd" clip-rule="evenodd" d="M12 4.58301C12.8741 4.58327 13.5838 5.29188 13.584 6.16602C13.584 7.0403 12.8742 7.74974 12 7.75C11.1257 7.74982 10.416 7.04036 10.416 6.16602C10.4162 5.29182 11.1258 4.58318 12 4.58301ZM12 6.08301C11.9542 6.08318 11.9172 6.12025 11.917 6.16602C11.917 6.21193 11.9541 6.24983 12 6.25C12.0458 6.24973 12.084 6.21188 12.084 6.16602C12.0838 6.1203 12.0457 6.08327 12 6.08301Z" fill="currentColor"/>
</svg>
