<svg width="24" height="24" viewBox="0 0 24 24" fill="none" xmlns="http://www.w3.org/2000/svg">
<g clip-path="url(#clip0_1307_7)">
<path d="M17.8696 5.14711C19.6129 6.66264 20.8247 8.81191 20.9926 11.1436C21.128 13.6554 20.4808 16.0379 18.8003 17.9485C18.7098 18.046 18.6187 18.143 18.5272 18.2396C18.5008 18.2681 18.4745 18.2967 18.4473 18.326C17.0455 19.8382 14.9207 20.9144 12.843 21.0102C12.7632 21.0117 12.6834 21.0128 12.6036 21.0137C12.5604 21.0142 12.5171 21.0148 12.4726 21.0154C11.5193 21.0252 10.5977 21.0224 9.67093 20.7699C9.60524 20.7524 9.60524 20.7524 9.53822 20.7344C7.35633 20.1284 5.37694 18.6427 4.22421 16.6875C3.76174 15.8681 3.39496 15.0139 3.17253 14.099C3.15414 14.0269 3.13576 13.9548 3.11682 13.8804C2.84743 12.6766 2.85711 11.151 3.17253 9.95844C3.18395 9.91351 3.19538 9.86859 3.20715 9.82231C3.48733 8.74441 3.92267 7.77094 4.55272 6.85301C4.59497 6.79126 4.63723 6.7295 4.68076 6.66588C6.07556 4.75103 8.16914 3.50637 10.4866 3.09073C13.1558 2.68639 15.8138 3.39311 17.8696 5.14711ZM8.52077 8.06067C8.46495 8.10515 8.40913 8.14963 8.35162 8.19546C7.59027 8.83062 7.10635 9.82229 6.85304 10.7636C6.84014 10.81 6.82724 10.8564 6.81395 10.9042C6.50559 12.2517 6.82957 13.6625 7.53392 14.8264C8.33175 16.0643 9.55414 16.8834 10.9873 17.197C11.7012 17.3336 12.4736 17.3281 13.1789 17.1469C13.1789 16.8963 13.1388 16.8169 13.0185 16.6033C12.9837 16.541 12.9489 16.4787 12.913 16.4146C12.8747 16.3472 12.8363 16.2798 12.7979 16.2124C12.7589 16.1431 12.72 16.0738 12.6811 16.0045C12.3837 15.4763 12.079 14.9523 11.7689 14.4314C11.2894 13.6207 11.2894 13.6207 11.3387 13.1789C11.3951 13.034 11.4522 12.9082 11.5256 12.7727C11.5456 12.7344 11.5657 12.6961 11.5864 12.6567C11.6314 12.5714 11.6767 12.4863 11.7224 12.4015C11.8068 12.2437 11.8888 12.0847 11.9708 11.9256C12.0308 11.8114 12.0908 11.6972 12.151 11.583C12.1791 11.5283 12.2073 11.4735 12.2364 11.417C12.2641 11.3654 12.2918 11.3137 12.3203 11.2605C12.3445 11.2145 12.3687 11.1686 12.3936 11.1212C12.5643 10.8923 12.7521 10.7757 13.0347 10.7337C13.1455 10.7329 13.1455 10.7329 13.2584 10.7322C13.2994 10.7316 13.3404 10.731 13.3826 10.7304C13.5171 10.7287 13.6515 10.7286 13.7859 10.7285C13.8795 10.7276 13.9732 10.7267 14.0668 10.7256C14.3124 10.7231 14.558 10.722 14.8036 10.7211C15.0546 10.72 15.3056 10.7176 15.5565 10.7153C16.0483 10.7109 16.5401 10.708 17.032 10.706C16.8864 9.61101 16.1258 8.54531 15.2586 7.87759C13.1737 6.38078 10.4833 6.3507 8.52077 8.06067ZM14.5591 13.5239C14.7841 13.9289 15.0177 14.3126 15.2766 14.6948C15.3435 14.794 15.4096 14.8937 15.4756 14.9934C15.5179 15.0559 15.5602 15.1185 15.6037 15.1829C15.6419 15.2398 15.6801 15.2968 15.7195 15.3554C15.7541 15.3963 15.7887 15.4371 15.8243 15.4792C15.8812 15.4792 15.9381 15.4792 15.9968 15.4792C16.4757 14.9205 16.8312 14.2265 17.032 13.5239C16.2159 13.5239 15.3999 13.5239 14.5591 13.5239Z" fill="#00C387"/>
<path d="M11.9713 13.524C12.3303 13.5054 12.6891 13.4919 13.0485 13.4829C13.1705 13.4791 13.2925 13.4741 13.4144 13.4676C14.4053 13.4161 14.4053 13.4161 14.6672 13.5997C14.8571 13.7973 14.9731 14.0198 15.0767 14.2716C15.0577 14.3095 15.0387 14.3475 15.0192 14.3866C13.9772 14.163 13.9772 14.163 13.5332 14.0213C13.4039 13.9825 13.2751 13.9538 13.143 13.9265C12.9322 13.8823 12.7416 13.8142 12.5421 13.7342C12.4145 13.6869 12.4145 13.6869 12.2049 13.6641C12.1468 13.6558 12.0886 13.6475 12.0288 13.639C12.0098 13.601 11.9908 13.5631 11.9713 13.524Z" fill="#208F6F"/>
</g>
<defs>
<clipPath id="clip0_1307_7">
<rect width="18" height="18" fill="white" transform="translate(3 3)"/>
</clipPath>
</defs>
</svg>
