<svg width="24" height="24" viewBox="0 0 24 24" fill="none" xmlns="http://www.w3.org/2000/svg">
<path d="M11.9995 5.4165C12.4137 5.4165 12.7495 5.75229 12.7495 6.1665V11.2495H17.8335L17.9097 11.2534C18.2879 11.2917 18.5835 11.6111 18.5835 11.9995C18.5835 12.3879 18.2879 12.7073 17.9097 12.7456L17.8335 12.7495H12.7495V17.8335C12.7493 18.2476 12.4136 18.5835 11.9995 18.5835C11.5854 18.5835 11.2497 18.2476 11.2495 17.8335V12.7495H6.1665C5.75229 12.7495 5.4165 12.4137 5.4165 11.9995C5.4165 11.5853 5.75229 11.2495 6.1665 11.2495H11.2495V6.1665C11.2495 5.75229 11.5853 5.4165 11.9995 5.4165Z" fill="currentColor"/>
</svg>
