<svg width="24" height="24" viewBox="0 0 24 24" fill="none" xmlns="http://www.w3.org/2000/svg">
<path d="M21.1895 12.917L21.2441 12.9209C21.2714 12.9237 21.2979 12.929 21.3242 12.9346C21.3472 12.9395 21.3691 12.948 21.3916 12.9551C21.4162 12.9629 21.4414 12.9684 21.4648 12.9785C21.4818 12.9859 21.4972 12.9963 21.5137 13.0049C21.5404 13.019 21.5671 13.0328 21.5918 13.0498C21.6236 13.0718 21.6538 13.0966 21.6826 13.1241C21.6896 13.1307 21.6964 13.1376 21.7031 13.1446C21.7062 13.1477 21.7099 13.1502 21.7129 13.1533C21.7382 13.1803 21.7607 13.2089 21.7812 13.2383C21.7851 13.2439 21.7892 13.2492 21.793 13.2549C21.8063 13.2752 21.816 13.2972 21.8271 13.3184C21.8402 13.3431 21.854 13.3674 21.8643 13.3936C21.8715 13.412 21.8752 13.4314 21.8809 13.4502C21.9018 13.5192 21.917 13.5912 21.917 13.667V18.667C21.917 19.0812 21.5812 19.417 21.167 19.417C20.7528 19.417 20.417 19.0812 20.417 18.667V15.3994L17.8135 17.8467L17.8125 17.8457C16.8302 18.8229 15.6183 19.5378 14.2871 19.9229C12.9486 20.31 11.5339 20.3524 10.1748 20.045C8.81557 19.7374 7.55628 19.0899 6.51465 18.1641C5.53818 17.2962 4.78229 16.21 4.30859 14.9951L4.21777 14.75L4.19531 14.6768C4.10534 14.3074 4.30871 13.9225 4.6748 13.793C5.04078 13.6637 5.44019 13.8352 5.60254 14.1787L5.63184 14.25L5.78711 14.6475C6.17729 15.5617 6.76517 16.3803 7.51074 17.043C8.36299 17.8005 9.39375 18.3304 10.5059 18.5821C11.6176 18.8335 12.7751 18.7991 13.8701 18.4825C14.9654 18.1656 15.9635 17.576 16.7695 16.7696L16.7861 16.753L19.2725 14.417H16.167C15.7528 14.417 15.417 14.0812 15.417 13.667C15.417 13.2528 15.7528 12.917 16.167 12.917H21.1895Z" fill="currentColor"/>
<path d="M9.71191 4.07718C11.0506 3.68995 12.4659 3.64756 13.8252 3.95511C15.1844 4.26267 16.4438 4.91019 17.4854 5.83597C18.4616 6.70379 19.2168 7.79023 19.6904 9.00491L19.7812 9.25003L19.8037 9.32327C19.8937 9.69254 19.6911 10.0774 19.3252 10.2071C18.9347 10.3452 18.5054 10.1405 18.3672 9.75003C17.9868 8.67525 17.3404 7.71447 16.4883 6.95706C15.6361 6.19961 14.6062 5.66964 13.4941 5.418C12.3821 5.16638 11.2242 5.20084 10.1289 5.51761C9.0336 5.83443 8.03652 6.42405 7.23047 7.2305C7.22494 7.23603 7.21859 7.24077 7.21289 7.24612L4.72656 9.58304H7.83301L7.91016 9.58694C8.28812 9.62556 8.58299 9.94488 8.58301 10.333C8.58301 10.7212 8.28812 11.0405 7.91016 11.0791L7.83301 11.083H2.83301C2.82844 11.083 2.82389 11.0821 2.81934 11.0821C2.81085 11.0819 2.80242 11.0815 2.79395 11.0811C2.75357 11.079 2.71422 11.0737 2.67578 11.0655C2.64414 11.0587 2.6137 11.048 2.58301 11.0371C2.56742 11.0316 2.55123 11.028 2.53613 11.0215C2.50956 11.0101 2.4853 10.9941 2.45996 10.9795C2.44312 10.9698 2.42516 10.9622 2.40918 10.9512C2.37303 10.9264 2.33884 10.8981 2.30664 10.8662L2.30273 10.8633L2.28613 10.8467C2.25951 10.8183 2.23621 10.788 2.21484 10.7569C2.21244 10.7534 2.21035 10.7497 2.20801 10.7461C2.19288 10.7233 2.18129 10.6988 2.16895 10.6748C2.15795 10.6535 2.14567 10.6328 2.13672 10.6104C2.12607 10.5836 2.11875 10.556 2.11133 10.5283C2.10541 10.5064 2.09866 10.4846 2.09473 10.4619C2.0936 10.4554 2.09275 10.4489 2.0918 10.4424C2.08657 10.4067 2.08301 10.3702 2.08301 10.333V5.33304C2.08302 4.91884 2.4188 4.58304 2.83301 4.58304C3.24721 4.58304 3.58299 4.91884 3.58301 5.33304V8.59964L6.18652 6.15335C7.1687 5.17636 8.38088 4.4622 9.71191 4.07718Z" fill="currentColor"/>
</svg>
