<svg width="24" height="24" viewBox="0 0 24 24" fill="none" xmlns="http://www.w3.org/2000/svg">
<path fill-rule="evenodd" clip-rule="evenodd" d="M11.1669 3.75C15.2629 3.75018 18.5829 7.07099 18.5829 11.167C18.5829 12.9447 17.9559 14.5751 16.913 15.8525L20.0302 18.9697L20.082 19.0264C20.3223 19.3209 20.3048 19.7557 20.0302 20.0303C19.7556 20.3049 19.3209 20.3223 19.0263 20.082L18.9697 20.0303L15.8525 16.9131C14.5751 17.956 12.9447 18.5829 11.1669 18.583C7.07093 18.583 3.75011 15.263 3.74994 11.167C3.74994 7.07088 7.07082 3.75 11.1669 3.75ZM11.1669 5.25C7.89925 5.25 5.24994 7.89931 5.24994 11.167C5.25011 14.4345 7.89935 17.083 11.1669 17.083C12.7676 17.0829 14.2182 16.4457 15.2831 15.4131C15.3018 15.3892 15.3227 15.3667 15.3447 15.3447C15.3666 15.3228 15.3892 15.3019 15.413 15.2832C16.4456 14.2182 17.0829 12.7677 17.0829 11.167C17.0829 7.89942 14.4345 5.25018 11.1669 5.25Z" fill="currentColor"/>
</svg>
