<svg width="24" height="24" viewBox="0 0 24 24" fill="none" xmlns="http://www.w3.org/2000/svg">
<path fill-rule="evenodd" clip-rule="evenodd" d="M20.3567 2.91814C20.3892 2.91915 20.4214 2.92174 20.4534 2.92693C20.4641 2.92865 20.475 2.92962 20.4856 2.93181C20.5262 2.94021 20.566 2.95197 20.6048 2.96697C20.6175 2.97189 20.6293 2.9789 20.6419 2.98455C20.6717 2.99802 20.7007 3.01303 20.7288 3.03044C20.7412 3.03815 20.7539 3.04538 20.7659 3.05388C20.7754 3.06059 20.785 3.06721 20.7942 3.07439C20.8184 3.09328 20.8422 3.11364 20.8645 3.13591C20.8881 3.15948 20.9082 3.18538 20.928 3.21111C20.932 3.21629 20.9359 3.22146 20.9397 3.22673C20.9499 3.24072 20.959 3.2552 20.968 3.2697C21.0153 3.34534 21.0487 3.42761 21.0667 3.51384C21.0684 3.52225 21.0691 3.53078 21.0706 3.53923C21.0772 3.57767 21.0817 3.61627 21.0823 3.65544C21.0824 3.66099 21.0823 3.6665 21.0823 3.67205C21.0817 3.75321 21.0699 3.83509 21.0423 3.91423L15.2083 20.5802C15.1068 20.8703 14.8385 21.0694 14.5315 21.0822C14.2245 21.0947 13.9407 20.9185 13.8157 20.6379L10.5979 13.3996L3.36257 10.1847C3.08163 10.0598 2.9057 9.77614 2.91823 9.46892C2.93081 9.16175 3.12905 8.89279 3.41921 8.79119L20.0862 2.95818C20.1622 2.93162 20.2406 2.91869 20.3186 2.91716C20.3313 2.9169 20.344 2.91776 20.3567 2.91814ZM12.0618 12.9982L14.4173 18.299L18.5383 6.52165L12.0618 12.9982ZM5.69948 9.5822L11.0012 11.9377L17.4817 5.4572L5.69948 9.5822Z" fill="currentColor"/>
</svg>
