<svg width="24" height="24" viewBox="0 0 24 24" fill="none" xmlns="http://www.w3.org/2000/svg">
<path d="M14.7349 13.2144C14.9838 12.8849 15.4521 12.819 15.7827 13.0669C16.1141 13.3154 16.1816 13.7853 15.9331 14.1167L15.9312 14.1187C15.9306 14.1194 15.9299 14.1206 15.9292 14.1216C15.9276 14.1236 15.9255 14.1266 15.9233 14.1294C15.919 14.1351 15.9135 14.1423 15.9067 14.1509C15.8929 14.1684 15.874 14.1918 15.8501 14.2202C15.8023 14.2772 15.7342 14.3547 15.647 14.4458C15.473 14.6273 15.2183 14.8665 14.8892 15.106C14.2334 15.5829 13.2478 16.0835 11.9995 16.0835C10.7514 16.0834 9.76653 15.5828 9.11084 15.106C8.78164 14.8665 8.52703 14.6274 8.35303 14.4458C8.26571 14.3547 8.19771 14.2772 8.1499 14.2202C8.12606 14.1918 8.10714 14.1684 8.09326 14.1509C8.08638 14.1422 8.08009 14.1351 8.07568 14.1294C8.07347 14.1265 8.0714 14.1237 8.06982 14.1216C8.06909 14.1206 8.06847 14.1194 8.06787 14.1187L8.06689 14.1177L8.02393 14.0532C7.82747 13.7277 7.90577 13.3 8.21631 13.0669C8.54684 12.819 9.01515 12.8851 9.26416 13.2144C9.2648 13.2152 9.26686 13.2165 9.26904 13.2192C9.27447 13.2261 9.28402 13.2393 9.29834 13.2563C9.32702 13.2905 9.37366 13.3426 9.43604 13.4077C9.56142 13.5386 9.74925 13.716 9.99268 13.8931C10.4827 14.2494 11.1646 14.5834 11.9995 14.5835C12.8345 14.5835 13.5163 14.2495 14.0063 13.8931C14.2499 13.7159 14.4385 13.5386 14.564 13.4077C14.6261 13.3429 14.672 13.2905 14.7007 13.2563C14.715 13.2393 14.7255 13.2261 14.731 13.2192C14.7334 13.2162 14.7344 13.215 14.7349 13.2144Z" fill="currentColor"/>
<path d="M9.58447 8.75342C9.96269 8.7918 10.2583 9.11117 10.2583 9.49951C10.2583 9.88785 9.96269 10.2072 9.58447 10.2456L9.5083 10.2495H9.49951C9.0853 10.2495 8.74951 9.91373 8.74951 9.49951C8.74951 9.0853 9.0853 8.74951 9.49951 8.74951H9.5083L9.58447 8.75342Z" fill="currentColor"/>
<path d="M14.5845 8.75342C14.9627 8.7918 15.2583 9.11117 15.2583 9.49951C15.2583 9.88785 14.9627 10.2072 14.5845 10.2456L14.5083 10.2495H14.4995C14.0853 10.2495 13.7495 9.91373 13.7495 9.49951C13.7495 9.0853 14.0853 8.74951 14.4995 8.74951H14.5083L14.5845 8.75342Z" fill="currentColor"/>
<path fill-rule="evenodd" clip-rule="evenodd" d="M11.9995 2.9165C17.016 2.9165 21.0833 6.98307 21.0835 11.9995C21.0835 17.0161 17.0161 21.0835 11.9995 21.0835C6.98307 21.0833 2.9165 17.016 2.9165 11.9995C2.91668 6.98318 6.98318 2.91668 11.9995 2.9165ZM11.9995 4.4165C7.81161 4.41668 4.41668 7.81161 4.4165 11.9995C4.4165 16.1876 7.8115 19.5833 11.9995 19.5835C16.1877 19.5835 19.5835 16.1877 19.5835 11.9995C19.5833 7.8115 16.1876 4.4165 11.9995 4.4165Z" fill="currentColor"/>
</svg>
