<svg width="24" height="24" viewBox="0 0 24 24" fill="none" xmlns="http://www.w3.org/2000/svg">
<path d="M7.79869 4.32459C9.25084 3.52988 10.8971 3.16416 12.5448 3.26697L12.8749 3.29432L12.951 3.30604C13.3231 3.38225 13.5843 3.72956 13.5458 4.11561C13.5043 4.52759 13.1365 4.82781 12.7245 4.7865C11.2688 4.6403 9.8028 4.93868 8.51939 5.641C7.2359 6.34348 6.19457 7.41796 5.53306 8.72303C4.87166 10.0281 4.62009 11.5031 4.81236 12.9535C5.00476 14.404 5.63239 15.7624 6.61119 16.85C7.59009 17.9376 8.87532 18.7036 10.2977 19.0472C11.7199 19.3907 13.2127 19.2964 14.5799 18.7758C15.9473 18.2549 17.1255 17.332 17.9588 16.1293C18.7914 14.9276 19.2418 13.5022 19.2499 12.0404V11.2406C19.2501 10.8266 19.5858 10.4906 19.9999 10.4906C20.4138 10.4907 20.7497 10.8266 20.7499 11.2406V12.0443C20.741 13.8101 20.1979 15.5323 19.1922 16.9838C18.1865 18.4353 16.7644 19.5485 15.1141 20.1771C13.4638 20.8057 11.6618 20.9199 9.94517 20.5053C8.22853 20.0905 6.67736 19.1666 5.49595 17.8539C4.31457 16.5412 3.55825 14.9014 3.32603 13.1508C3.09394 11.4003 3.39697 9.62039 4.19517 8.04529C4.99353 6.47018 6.24964 5.17243 7.79869 4.32459Z" fill="currentColor"/>
<path d="M14.6014 13.1879C14.8505 12.8589 15.3198 12.7926 15.6502 13.0404C15.9813 13.2889 16.0478 13.7589 15.7997 14.0902L15.4413 13.8217C15.7777 14.0741 15.7985 14.0891 15.7997 14.0902L15.7977 14.0922C15.7972 14.0929 15.7964 14.0942 15.7958 14.0951C15.7943 14.097 15.7929 14.1002 15.7909 14.1029C15.7866 14.1084 15.7809 14.116 15.7743 14.1244C15.7608 14.1414 15.7416 14.1644 15.7186 14.1918C15.6724 14.2468 15.6063 14.3219 15.5223 14.4096C15.3543 14.5848 15.1085 14.8162 14.7909 15.0472C14.1581 15.5074 13.2063 15.9905 11.9999 15.9906C10.7933 15.9906 9.84168 15.5074 9.20884 15.0472C8.89115 14.8162 8.64543 14.5849 8.4774 14.4096C8.39331 14.3218 8.32735 14.2469 8.28111 14.1918C8.25805 14.1643 8.23893 14.1414 8.22545 14.1244C8.21874 14.1159 8.21314 14.1085 8.20884 14.1029C8.20675 14.1001 8.20549 14.0971 8.20396 14.0951C8.20316 14.0941 8.20163 14.093 8.20103 14.0922L8.20005 14.0912C8.20297 14.0887 8.23459 14.0646 8.55845 13.8217L8.20005 14.0912C7.95172 13.7599 8.01831 13.2889 8.34947 13.0404C8.67999 12.7928 9.14936 12.8588 9.3983 13.1879C9.39901 13.1888 9.40075 13.191 9.4022 13.1928C9.40724 13.1991 9.4162 13.211 9.42955 13.2269C9.45669 13.2593 9.50103 13.3095 9.56041 13.3715C9.67986 13.4961 9.85865 13.6656 10.0907 13.8344C10.5578 14.1741 11.2065 14.4906 11.9999 14.4906C12.7931 14.4905 13.4419 14.1741 13.909 13.8344C14.141 13.6657 14.3199 13.496 14.4393 13.3715C14.4986 13.3096 14.5431 13.2592 14.5702 13.2269C14.5834 13.2111 14.5925 13.1991 14.5975 13.1928C14.5989 13.1911 14.6007 13.1888 14.6014 13.1879Z" fill="currentColor"/>
<path d="M9.68443 8.89393C10.0623 8.93235 10.3578 9.2521 10.3583 9.64002C10.3583 10.0283 10.0625 10.3476 9.68443 10.3861L9.60826 10.39H9.59947C9.18541 10.3898 8.84947 10.0541 8.84947 9.64002C8.84991 9.22629 9.18568 8.8902 9.59947 8.89002H9.60826L9.68443 8.89393Z" fill="currentColor"/>
<path d="M14.4842 8.89393C14.8622 8.93225 15.1576 9.25202 15.1581 9.64002C15.1581 10.0283 14.8624 10.3477 14.4842 10.3861L14.4081 10.39H14.4002C13.986 10.39 13.6502 10.0542 13.6502 9.64002C13.6507 9.22618 13.9863 8.89002 14.4002 8.89002H14.4081L14.4842 8.89393Z" fill="currentColor"/>
<path d="M17.5995 3.29041C18.0134 3.29053 18.3492 3.62647 18.3495 4.04041V5.6908H19.9999L20.077 5.69471C20.4547 5.73342 20.7497 6.05288 20.7499 6.4408C20.7497 6.82874 20.4548 7.14818 20.077 7.1869L19.9999 7.1908H18.3495V8.84022C18.3495 9.25435 18.0136 9.5901 17.5995 9.59022C17.1854 9.59001 16.8495 9.2543 16.8495 8.84022V7.1908H15.2001C14.786 7.1908 14.4502 6.85486 14.4501 6.4408C14.4503 6.02676 14.786 5.6908 15.2001 5.6908H16.8495V4.04041C16.8497 3.62652 17.1856 3.29061 17.5995 3.29041Z" fill="currentColor"/>
</svg>
