<svg width="24" height="24" viewBox="0 0 24 24" fill="none" xmlns="http://www.w3.org/2000/svg">
<path d="M14.6646 13.2032C14.9071 12.8769 15.3635 12.8117 15.6856 13.0571C16.0086 13.3033 16.0744 13.7689 15.8322 14.0972L15.8303 14.0992L15.8284 14.1021C15.8269 14.1041 15.8247 14.1071 15.8227 14.1098C15.8184 14.1154 15.813 14.1227 15.8065 14.1311C15.793 14.1484 15.7745 14.1717 15.7513 14.1998C15.7047 14.2562 15.6383 14.3332 15.5534 14.4233C15.3839 14.6032 15.1355 14.8403 14.8149 15.0774C14.1759 15.5499 13.2153 16.046 11.999 16.046C10.7829 16.0458 9.82302 15.5498 9.18414 15.0774C8.86346 14.8402 8.61519 14.6032 8.44568 14.4233C8.36067 14.3331 8.29429 14.2562 8.24774 14.1998C8.22458 14.1717 8.20604 14.1484 8.19255 14.1311C8.18589 14.1226 8.17968 14.1154 8.17542 14.1098C8.17331 14.107 8.17121 14.1041 8.16971 14.1021L8.1678 14.0992L8.16685 14.0982L8.12498 14.0343C7.93372 13.7119 8.01009 13.2881 8.31245 13.0571C8.63449 12.8115 9.09086 12.8772 9.33354 13.2032C9.33354 13.2032 9.33623 13.2054 9.3383 13.208C9.34358 13.2148 9.35298 13.228 9.36685 13.2448C9.39477 13.2786 9.44033 13.3304 9.50103 13.3948C9.62318 13.5244 9.80636 13.7003 10.0435 13.8757C10.5209 14.2287 11.1857 14.5596 11.999 14.5597C12.8126 14.5597 13.4771 14.2287 13.9546 13.8757C14.1919 13.7002 14.3758 13.5245 14.498 13.3948C14.5584 13.3307 14.6033 13.2786 14.6312 13.2448C14.6451 13.228 14.6554 13.2149 14.6607 13.208C14.6629 13.2053 14.6646 13.2032 14.6646 13.2032Z" fill="currentColor"/>
<path d="M9.64568 8.78326C10.0142 8.82129 10.3023 9.13772 10.3023 9.5225C10.3023 9.90727 10.0142 10.2237 9.64568 10.2617L9.57145 10.2656H9.56289C9.15942 10.2654 8.83204 9.93278 8.83204 9.5225C8.83204 9.11221 9.15942 8.77959 9.56289 8.77939H9.57145L9.64568 8.78326Z" fill="currentColor"/>
<path d="M14.518 8.78326C14.8866 8.82129 15.1746 9.13772 15.1746 9.5225C15.1746 9.90727 14.8866 10.2237 14.518 10.2617L14.4438 10.2656H14.4352C14.0317 10.2654 13.7044 9.93278 13.7044 9.5225C13.7044 9.11221 14.0317 8.77959 14.4352 8.77939H14.4438L14.518 8.78326Z" fill="currentColor"/>
<path fill-rule="evenodd" clip-rule="evenodd" d="M11.999 3C16.8874 3 20.8509 7.02919 20.8511 11.9995C20.8511 16.97 16.8875 21 11.999 21C7.11087 20.9996 3.14798 16.9698 3.14798 11.9995C3.14815 7.02942 7.11098 3.00037 11.999 3ZM11.999 4.48621C7.91825 4.48659 4.60985 7.85023 4.60967 11.9995C4.60967 16.1489 7.91815 19.5134 11.999 19.5138C16.0803 19.5138 19.3894 16.1492 19.3894 11.9995C19.3892 7.85 16.0802 4.48621 11.999 4.48621Z" fill="currentColor"/>
<path d="M2.69215 4.19787C2.89409 3.94196 3.26247 3.90086 3.51435 4.10595C3.7658 4.31123 3.80617 4.68494 3.60476 4.94098C2.08059 6.87458 1.16871 9.32834 1.1686 11.9995C1.1686 14.6708 2.08061 17.1244 3.60476 19.0581C3.80653 19.3142 3.76608 19.6887 3.51435 19.894C3.26239 20.0994 2.8941 20.0574 2.69215 19.8012C1.00785 17.6642 0 14.9506 0 11.9995C0.000110123 9.04842 1.00777 6.33477 2.69215 4.19787Z" fill="currentColor"/>
<path d="M20.4856 4.10595C20.7376 3.90095 21.106 3.9419 21.3079 4.19787C22.9922 6.33477 23.9999 9.04842 24 11.9995C24 14.9506 22.9921 17.6642 21.3079 19.8012C21.1059 20.0574 20.7376 20.0994 20.4856 19.894C20.2338 19.6887 20.1934 19.3142 20.3952 19.0581C21.9193 17.1244 22.8314 14.6707 22.8314 11.9995C22.8313 9.32834 21.9194 6.87458 20.3952 4.94098C20.1937 4.68493 20.2342 4.31126 20.4856 4.10595Z" fill="currentColor"/>
</svg>
