<svg width="24" height="24" viewBox="0 0 24 24" fill="none" xmlns="http://www.w3.org/2000/svg">
<path d="M10.333 10.4165C10.7472 10.4165 11.083 10.7523 11.083 11.1665V16.1665C11.083 16.5807 10.7472 16.9165 10.333 16.9165C9.91879 16.9165 9.58301 16.5807 9.58301 16.1665V11.1665C9.58301 10.7523 9.91879 10.4165 10.333 10.4165Z" fill="currentColor"/>
<path d="M13.667 10.4165C14.0812 10.4165 14.417 10.7523 14.417 11.1665V16.1665C14.417 16.5807 14.0812 16.9165 13.667 16.9165C13.2528 16.9165 12.917 16.5807 12.917 16.1665V11.1665C12.917 10.7523 13.2528 10.4165 13.667 10.4165Z" fill="currentColor"/>
<path fill-rule="evenodd" clip-rule="evenodd" d="M13.667 2.9165C14.3079 2.9165 14.9228 3.1713 15.376 3.62451C15.8291 4.07771 16.084 4.69263 16.084 5.3335V6.24951H19.5L19.5771 6.25342C19.9551 6.29204 20.25 6.61135 20.25 6.99951C20.25 7.38768 19.9551 7.70698 19.5771 7.74561L19.5 7.74951H18.584V18.6665C18.584 19.3074 18.3292 19.9223 17.876 20.3755C17.4228 20.8287 16.8079 21.0835 16.167 21.0835H7.83398C7.19312 21.0835 6.5782 20.8286 6.125 20.3755C5.67179 19.9223 5.41699 19.3074 5.41699 18.6665V7.74951H4.5C4.08579 7.74951 3.75 7.41373 3.75 6.99951C3.75 6.5853 4.08579 6.24951 4.5 6.24951H7.91699V5.3335C7.91699 4.69256 8.17179 4.07772 8.625 3.62451C9.07821 3.1713 9.69304 2.9165 10.334 2.9165H13.667ZM6.91699 18.6665C6.91699 18.9096 7.01364 19.143 7.18555 19.3149C7.35744 19.4867 7.59095 19.5835 7.83398 19.5835H16.167C16.4101 19.5835 16.6435 19.4869 16.8154 19.3149C16.9873 19.143 17.084 18.9096 17.084 18.6665V7.74951H6.91699V18.6665ZM10.334 4.4165C10.0909 4.4165 9.85746 4.51315 9.68555 4.68506C9.51364 4.85697 9.41699 5.09038 9.41699 5.3335V6.24951H14.584V5.3335C14.584 5.09046 14.4872 4.85695 14.3154 4.68506C14.1435 4.51315 13.9101 4.4165 13.667 4.4165H10.334Z" fill="currentColor"/>
</svg>
