<svg width="24" height="24" viewBox="0 0 24 24" fill="none" xmlns="http://www.w3.org/2000/svg">
<path d="M15.3335 13.75C16.4165 13.75 17.4554 14.1805 18.2212 14.9463C18.9867 15.712 19.4164 16.7503 19.4165 17.833V19.5C19.4165 19.9142 19.0807 20.25 18.6665 20.25C18.2524 20.2498 17.9165 19.9141 17.9165 19.5V17.833C17.9164 17.1481 17.6448 16.4912 17.1606 16.0068C16.6762 15.5224 16.0186 15.25 15.3335 15.25H8.6665C7.98148 15.2501 7.32472 15.5224 6.84033 16.0068C6.35594 16.4912 6.08358 17.148 6.0835 17.833V19.5C6.0835 19.9142 5.74771 20.25 5.3335 20.25C4.91928 20.25 4.5835 19.9142 4.5835 19.5V17.833C4.58358 16.7502 5.01409 15.712 5.77979 14.9463C6.54548 14.1806 7.58365 13.7501 8.6665 13.75H15.3335Z" fill="black"/>
<path fill-rule="evenodd" clip-rule="evenodd" d="M12.0005 3.75C14.2555 3.75 16.0843 5.57799 16.0845 7.83301C16.0845 10.0882 14.2557 11.917 12.0005 11.917C9.74548 11.9168 7.91748 10.0881 7.91748 7.83301C7.91766 5.5781 9.74558 3.75018 12.0005 3.75ZM12.0005 5.25C10.574 5.25018 9.41766 6.40653 9.41748 7.83301C9.41748 9.25963 10.5739 10.4168 12.0005 10.417C13.4272 10.417 14.5845 9.25974 14.5845 7.83301C14.5843 6.40642 13.4271 5.25 12.0005 5.25Z" fill="black"/>
</svg>
