<svg width="24" height="24" viewBox="0 0 24 24" fill="none" xmlns="http://www.w3.org/2000/svg">
<path d="M16.4697 6.46967C16.7626 6.17678 17.2373 6.17678 17.5302 6.46967C17.8231 6.76257 17.8231 7.23734 17.5302 7.53022L13.0605 11.9999L17.5302 16.4697L17.582 16.5263C17.8222 16.8209 17.8048 17.2556 17.5302 17.5302C17.2556 17.8048 16.8209 17.8222 16.5263 17.582L16.4697 17.5302L11.9999 13.0605L7.53022 17.5302C7.23734 17.8231 6.76257 17.8231 6.46967 17.5302C6.17678 17.2373 6.17678 16.7626 6.46967 16.4697L10.9394 11.9999L6.46967 7.53022C6.17678 7.23732 6.17678 6.76256 6.46967 6.46967C6.76256 6.17678 7.23732 6.17678 7.53022 6.46967L11.9999 10.9394L16.4697 6.46967Z" fill="currentColor"/>
</svg>
