<svg width="24" height="24" viewBox="0 0 24 24" fill="none" xmlns="http://www.w3.org/2000/svg">
<path d="M16.125 3.65344C16.8254 3.65351 17.5199 3.79157 18.167 4.05969C18.8139 4.32782 19.4023 4.72067 19.8975 5.21594L20.0781 5.40637C20.4888 5.85942 20.8191 6.38033 21.0537 6.94641C21.3219 7.59359 21.4599 8.28787 21.46 8.9884C21.4599 9.68877 21.3217 10.3824 21.0537 11.0294C20.7856 11.6765 20.3928 12.2656 19.8975 12.7609L12.5303 20.1271C12.2374 20.4196 11.7625 20.4197 11.4697 20.1271L4.10352 12.7599C3.10324 11.7595 2.54007 10.4031 2.54004 8.9884C2.54007 7.57367 3.10315 6.21631 4.10352 5.21594C5.10376 4.21598 6.46063 3.65355 7.875 3.65344C9.28952 3.65357 10.6472 4.21576 11.6475 5.21594L12 5.56848L12.3535 5.21594C12.8487 4.72074 13.437 4.32776 14.084 4.05969C14.7309 3.79171 15.4247 3.6535 16.125 3.65344Z" fill="black"/>
</svg>
